<svg xmlns="http://www.w3.org/2000/svg" xmlns:xlink="http://www.w3.org/1999/xlink" contentStyleType="text/css" data-diagram-type="CLASS" height="639px" preserveAspectRatio="none" style="width:1003px;height:639px;background:#FFFFFF;" version="1.1" viewBox="0 0 1003 639" width="1003px" zoomAndPan="magnify"><defs/><g><!--cluster java--><g class="cluster" data-entity="java" data-source-line="21" data-uid="ent0024" id="cluster_java"><path d="M807.3,398 L841.1193,398 A3.75,3.75 0 0 1 843.6193,400.5 L850.6193,420.2969 L994.3,420.2969 A2.5,2.5 0 0 1 996.8,422.7969 L996.8,561.5 A2.5,2.5 0 0 1 994.3,564 L807.3,564 A2.5,2.5 0 0 1 804.8,561.5 L804.8,400.5 A2.5,2.5 0 0 1 807.3,398" fill="none" style="stroke:#000000;stroke-width:1.5;"/><line style="stroke:#000000;stroke-width:1.5;" x1="804.8" x2="850.6193" y1="420.2969" y2="420.2969"/><text fill="#000000" font-family="sans-serif" font-size="14" font-weight="bold" lengthAdjust="spacing" textLength="32.8193" x="808.8" y="412.9951">java</text></g><!--cluster io--><g class="cluster" data-entity="io" data-source-line="21" data-uid="ent0025" id="cluster_io"><path d="M831.3,441 L846.717,441 A3.75,3.75 0 0 1 849.217,443.5 L856.217,463.2969 L970.3,463.2969 A2.5,2.5 0 0 1 972.8,465.7969 L972.8,537.5 A2.5,2.5 0 0 1 970.3,540 L831.3,540 A2.5,2.5 0 0 1 828.8,537.5 L828.8,443.5 A2.5,2.5 0 0 1 831.3,441" fill="none" style="stroke:#000000;stroke-width:1.5;"/><line style="stroke:#000000;stroke-width:1.5;" x1="828.8" x2="856.217" y1="463.2969" y2="463.2969"/><text fill="#000000" font-family="sans-serif" font-size="14" font-weight="bold" lengthAdjust="spacing" textLength="14.417" x="832.8" y="455.9951">io</text></g><!--class Serializable--><g class="entity" data-entity="Serializable" data-source-line="21" data-uid="ent0023" id="entity_Serializable"><rect fill="#F1F1F1" height="48" rx="2.5" ry="2.5" style="stroke:#181818;stroke-width:0.5;" width="112.8213" x="844.39" y="476"/><ellipse cx="859.39" cy="492" fill="#B4A7E5" rx="11" ry="11" style="stroke:#181818;stroke-width:1;"/><path d="M855.3119,487.7656 L855.3119,485.6094 L862.7025,485.6094 L862.7025,487.7656 L860.2338,487.7656 L860.2338,495.8438 L862.7025,495.8438 L862.7025,498 L855.3119,498 L855.3119,495.8438 L857.7806,495.8438 L857.7806,487.7656 L855.3119,487.7656 Z " fill="#000000"/><text fill="#000000" font-family="sans-serif" font-size="14" font-style="italic" lengthAdjust="spacing" textLength="80.8213" x="873.39" y="496.8467">Serializable</text><line style="stroke:#181818;stroke-width:0.5;" x1="845.39" x2="956.2113" y1="508" y2="508"/><line style="stroke:#181818;stroke-width:0.5;" x1="845.39" x2="956.2113" y1="516" y2="516"/></g><!--class Iterable--><g class="entity" data-entity="Iterable" data-source-line="4" data-uid="ent0002" id="entity_Iterable"><rect fill="#F1F1F1" height="48" rx="2.5" ry="2.5" style="stroke:#181818;stroke-width:0.5;" width="97.5381" x="264.03" y="10"/><ellipse cx="279.03" cy="26" fill="#B4A7E5" rx="11" ry="11" style="stroke:#181818;stroke-width:1;"/><path d="M274.9519,21.7656 L274.9519,19.6094 L282.3425,19.6094 L282.3425,21.7656 L279.8738,21.7656 L279.8738,29.8438 L282.3425,29.8438 L282.3425,32 L274.9519,32 L274.9519,29.8438 L277.4206,29.8438 L277.4206,21.7656 L274.9519,21.7656 Z " fill="#000000"/><text fill="#000000" font-family="sans-serif" font-size="14" font-style="italic" lengthAdjust="spacing" textLength="53.9561" x="293.03" y="30.8467">Iterable</text><rect fill="#FFFFFF" height="15.9688" style="stroke:#181818;stroke-width:1;stroke-dasharray:2.0,2.0;" width="9.582" x="354.9861" y="7"/><text fill="#000000" font-family="sans-serif" font-size="12" font-style="italic" lengthAdjust="spacing" textLength="7.582" x="355.9861" y="19.1387">E</text><line style="stroke:#181818;stroke-width:0.5;" x1="265.03" x2="360.5681" y1="42" y2="42"/><line style="stroke:#181818;stroke-width:0.5;" x1="265.03" x2="360.5681" y1="50" y2="50"/></g><!--class Collection--><g class="entity" data-entity="Collection" data-source-line="6" data-uid="ent0003" id="entity_Collection"><rect fill="#F1F1F1" height="48" rx="2.5" ry="2.5" style="stroke:#181818;stroke-width:0.5;" width="112.8301" x="256.38" y="118"/><ellipse cx="271.38" cy="134" fill="#B4A7E5" rx="11" ry="11" style="stroke:#181818;stroke-width:1;"/><path d="M267.3019,129.7656 L267.3019,127.6094 L274.6925,127.6094 L274.6925,129.7656 L272.2238,129.7656 L272.2238,137.8438 L274.6925,137.8438 L274.6925,140 L267.3019,140 L267.3019,137.8438 L269.7706,137.8438 L269.7706,129.7656 L267.3019,129.7656 Z " fill="#000000"/><text fill="#000000" font-family="sans-serif" font-size="14" font-style="italic" lengthAdjust="spacing" textLength="69.248" x="285.38" y="138.8467">Collection</text><rect fill="#FFFFFF" height="15.9688" style="stroke:#181818;stroke-width:1;stroke-dasharray:2.0,2.0;" width="9.582" x="362.628" y="115"/><text fill="#000000" font-family="sans-serif" font-size="12" font-style="italic" lengthAdjust="spacing" textLength="7.582" x="363.628" y="127.1387">E</text><line style="stroke:#181818;stroke-width:0.5;" x1="257.38" x2="368.2101" y1="150" y2="150"/><line style="stroke:#181818;stroke-width:0.5;" x1="257.38" x2="368.2101" y1="158" y2="158"/></g><!--class AbstractCollection--><g class="entity" data-entity="AbstractCollection" data-source-line="8" data-uid="ent0005" id="entity_AbstractCollection"><rect fill="#F1F1F1" height="48" rx="2.5" ry="2.5" style="stroke:#181818;stroke-width:0.5;" width="171.5986" x="7" y="226"/><ellipse cx="22" cy="242" fill="#A9DCDF" rx="11" ry="11" style="stroke:#181818;stroke-width:1;"/><path d="M22.1094,237.3438 L20.9531,242.4219 L23.2813,242.4219 L22.1094,237.3438 Z M20.625,235.1094 L23.6094,235.1094 L26.9688,247.5 L24.5156,247.5 L23.75,244.4375 L20.4688,244.4375 L19.7188,247.5 L17.2813,247.5 L20.625,235.1094 Z " fill="#000000"/><text fill="#000000" font-family="sans-serif" font-size="14" font-style="italic" lengthAdjust="spacing" textLength="128.0166" x="36" y="246.8467">AbstractCollection</text><rect fill="#FFFFFF" height="15.9688" style="stroke:#181818;stroke-width:1;stroke-dasharray:2.0,2.0;" width="9.582" x="172.0166" y="223"/><text fill="#000000" font-family="sans-serif" font-size="12" font-style="italic" lengthAdjust="spacing" textLength="7.582" x="173.0166" y="235.1387">E</text><line style="stroke:#181818;stroke-width:0.5;" x1="8" x2="177.5986" y1="258" y2="258"/><line style="stroke:#181818;stroke-width:0.5;" x1="8" x2="177.5986" y1="266" y2="266"/></g><!--class List--><g class="entity" data-entity="List" data-source-line="11" data-uid="ent0007" id="entity_List"><rect fill="#F1F1F1" height="48" rx="2.5" ry="2.5" style="stroke:#181818;stroke-width:0.5;" width="68.0547" x="278.77" y="226"/><ellipse cx="293.77" cy="242" fill="#B4A7E5" rx="11" ry="11" style="stroke:#181818;stroke-width:1;"/><path d="M289.6919,237.7656 L289.6919,235.6094 L297.0825,235.6094 L297.0825,237.7656 L294.6138,237.7656 L294.6138,245.8438 L297.0825,245.8438 L297.0825,248 L289.6919,248 L289.6919,245.8438 L292.1606,245.8438 L292.1606,237.7656 L289.6919,237.7656 Z " fill="#000000"/><text fill="#000000" font-family="sans-serif" font-size="14" font-style="italic" lengthAdjust="spacing" textLength="24.4727" x="307.77" y="246.8467">List</text><rect fill="#FFFFFF" height="15.9688" style="stroke:#181818;stroke-width:1;stroke-dasharray:2.0,2.0;" width="9.582" x="340.2427" y="223"/><text fill="#000000" font-family="sans-serif" font-size="12" font-style="italic" lengthAdjust="spacing" textLength="7.582" x="341.2427" y="235.1387">E</text><line style="stroke:#181818;stroke-width:0.5;" x1="279.77" x2="345.8247" y1="258" y2="258"/><line style="stroke:#181818;stroke-width:0.5;" x1="279.77" x2="345.8247" y1="266" y2="266"/></g><!--class Queue--><g class="entity" data-entity="Queue" data-source-line="13" data-uid="ent0009" id="entity_Queue"><rect fill="#F1F1F1" height="48" rx="2.5" ry="2.5" style="stroke:#181818;stroke-width:0.5;" width="89.5742" x="447.01" y="226"/><ellipse cx="462.01" cy="242" fill="#B4A7E5" rx="11" ry="11" style="stroke:#181818;stroke-width:1;"/><path d="M457.9319,237.7656 L457.9319,235.6094 L465.3225,235.6094 L465.3225,237.7656 L462.8538,237.7656 L462.8538,245.8438 L465.3225,245.8438 L465.3225,248 L457.9319,248 L457.9319,245.8438 L460.4006,245.8438 L460.4006,237.7656 L457.9319,237.7656 Z " fill="#000000"/><text fill="#000000" font-family="sans-serif" font-size="14" font-style="italic" lengthAdjust="spacing" textLength="45.9922" x="476.01" y="246.8467">Queue</text><rect fill="#FFFFFF" height="15.9688" style="stroke:#181818;stroke-width:1;stroke-dasharray:2.0,2.0;" width="9.582" x="530.0022" y="223"/><text fill="#000000" font-family="sans-serif" font-size="12" font-style="italic" lengthAdjust="spacing" textLength="7.582" x="531.0022" y="235.1387">E</text><line style="stroke:#181818;stroke-width:0.5;" x1="448.01" x2="535.5842" y1="258" y2="258"/><line style="stroke:#181818;stroke-width:0.5;" x1="448.01" x2="535.5842" y1="266" y2="266"/></g><!--class Deque--><g class="entity" data-entity="Deque" data-source-line="15" data-uid="ent0011" id="entity_Deque"><rect fill="#F1F1F1" height="48" rx="2.5" ry="2.5" style="stroke:#181818;stroke-width:0.5;" width="89.3486" x="447.12" y="334"/><ellipse cx="462.12" cy="350" fill="#B4A7E5" rx="11" ry="11" style="stroke:#181818;stroke-width:1;"/><path d="M458.0419,345.7656 L458.0419,343.6094 L465.4325,343.6094 L465.4325,345.7656 L462.9638,345.7656 L462.9638,353.8438 L465.4325,353.8438 L465.4325,356 L458.0419,356 L458.0419,353.8438 L460.5106,353.8438 L460.5106,345.7656 L458.0419,345.7656 Z " fill="#000000"/><text fill="#000000" font-family="sans-serif" font-size="14" font-style="italic" lengthAdjust="spacing" textLength="45.7666" x="476.12" y="354.8467">Deque</text><rect fill="#FFFFFF" height="15.9688" style="stroke:#181818;stroke-width:1;stroke-dasharray:2.0,2.0;" width="9.582" x="529.8866" y="331"/><text fill="#000000" font-family="sans-serif" font-size="12" font-style="italic" lengthAdjust="spacing" textLength="7.582" x="530.8866" y="343.1387">E</text><line style="stroke:#181818;stroke-width:0.5;" x1="448.12" x2="535.4686" y1="366" y2="366"/><line style="stroke:#181818;stroke-width:0.5;" x1="448.12" x2="535.4686" y1="374" y2="374"/></g><!--class AbstractList--><g class="entity" data-entity="AbstractList" data-source-line="17" data-uid="ent0013" id="entity_AbstractList"><rect fill="#F1F1F1" height="48" rx="2.5" ry="2.5" style="stroke:#181818;stroke-width:0.5;" width="126.8232" x="176.39" y="334"/><ellipse cx="191.39" cy="350" fill="#A9DCDF" rx="11" ry="11" style="stroke:#181818;stroke-width:1;"/><path d="M191.4994,345.3438 L190.3431,350.4219 L192.6713,350.4219 L191.4994,345.3438 Z M190.015,343.1094 L192.9994,343.1094 L196.3588,355.5 L193.9056,355.5 L193.14,352.4375 L189.8588,352.4375 L189.1088,355.5 L186.6713,355.5 L190.015,343.1094 Z " fill="#000000"/><text fill="#000000" font-family="sans-serif" font-size="14" font-style="italic" lengthAdjust="spacing" textLength="83.2412" x="205.39" y="354.8467">AbstractList</text><rect fill="#FFFFFF" height="15.9688" style="stroke:#181818;stroke-width:1;stroke-dasharray:2.0,2.0;" width="9.582" x="296.6312" y="331"/><text fill="#000000" font-family="sans-serif" font-size="12" font-style="italic" lengthAdjust="spacing" textLength="7.582" x="297.6312" y="343.1387">E</text><line style="stroke:#181818;stroke-width:0.5;" x1="177.39" x2="302.2132" y1="366" y2="366"/><line style="stroke:#181818;stroke-width:0.5;" x1="177.39" x2="302.2132" y1="374" y2="374"/></g><!--class AbstractSequentialList--><g class="entity" data-entity="AbstractSequentialList" data-source-line="19" data-uid="ent0016" id="entity_AbstractSequentialList"><rect fill="#F1F1F1" height="48" rx="2.5" ry="2.5" style="stroke:#181818;stroke-width:0.5;" width="201.417" x="139.09" y="476"/><ellipse cx="154.09" cy="492" fill="#A9DCDF" rx="11" ry="11" style="stroke:#181818;stroke-width:1;"/><path d="M154.1994,487.3438 L153.0431,492.4219 L155.3713,492.4219 L154.1994,487.3438 Z M152.715,485.1094 L155.6994,485.1094 L159.0588,497.5 L156.6056,497.5 L155.84,494.4375 L152.5588,494.4375 L151.8088,497.5 L149.3713,497.5 L152.715,485.1094 Z " fill="#000000"/><text fill="#000000" font-family="sans-serif" font-size="14" font-style="italic" lengthAdjust="spacing" textLength="157.835" x="168.09" y="496.8467">AbstractSequentialList</text><rect fill="#FFFFFF" height="15.9688" style="stroke:#181818;stroke-width:1;stroke-dasharray:2.0,2.0;" width="9.582" x="333.925" y="473"/><text fill="#000000" font-family="sans-serif" font-size="12" font-style="italic" lengthAdjust="spacing" textLength="7.582" x="334.925" y="485.1387">E</text><line style="stroke:#181818;stroke-width:0.5;" x1="140.09" x2="339.507" y1="508" y2="508"/><line style="stroke:#181818;stroke-width:0.5;" x1="140.09" x2="339.507" y1="516" y2="516"/></g><!--class LinkedList--><g class="entity" data-entity="LinkedList" data-source-line="21" data-uid="ent0018" id="entity_LinkedList"><rect fill="#F1F1F1" height="48" rx="2.5" ry="2.5" style="stroke:#181818;stroke-width:0.5;" width="114.2246" x="535.69" y="584"/><ellipse cx="550.69" cy="600" fill="#ADD1B2" rx="11" ry="11" style="stroke:#181818;stroke-width:1;"/><path d="M553.6588,605.6406 Q553.0806,605.9375 552.44,606.0781 Q551.7994,606.2344 551.0963,606.2344 Q548.5963,606.2344 547.2681,604.5938 Q545.9556,602.9375 545.9556,599.8125 Q545.9556,596.6875 547.2681,595.0313 Q548.5963,593.375 551.0963,593.375 Q551.7994,593.375 552.44,593.5313 Q553.0963,593.6875 553.6588,593.9844 L553.6588,596.7031 Q553.0338,596.125 552.44,595.8594 Q551.8463,595.5781 551.2213,595.5781 Q549.8775,595.5781 549.19,596.6563 Q548.5025,597.7188 548.5025,599.8125 Q548.5025,601.9063 549.19,602.9844 Q549.8775,604.0469 551.2213,604.0469 Q551.8463,604.0469 552.44,603.7813 Q553.0338,603.5 553.6588,602.9219 L553.6588,605.6406 Z " fill="#000000"/><text fill="#000000" font-family="sans-serif" font-size="14" lengthAdjust="spacing" textLength="70.6426" x="564.69" y="604.8467">LinkedList</text><rect fill="#FFFFFF" height="15.9688" style="stroke:#181818;stroke-width:1;stroke-dasharray:2.0,2.0;" width="9.582" x="643.3326" y="581"/><text fill="#000000" font-family="sans-serif" font-size="12" font-style="italic" lengthAdjust="spacing" textLength="7.582" x="644.3326" y="593.1387">E</text><line style="stroke:#181818;stroke-width:0.5;" x1="536.69" x2="648.9146" y1="616" y2="616"/><line style="stroke:#181818;stroke-width:0.5;" x1="536.69" x2="648.9146" y1="624" y2="624"/></g><!--class Cloneable--><g class="entity" data-entity="Cloneable" data-source-line="21" data-uid="ent0021" id="entity_Cloneable"><rect fill="#F1F1F1" height="48" rx="2.5" ry="2.5" style="stroke:#181818;stroke-width:0.5;" width="101.6855" x="642.96" y="476"/><ellipse cx="657.96" cy="492" fill="#B4A7E5" rx="11" ry="11" style="stroke:#181818;stroke-width:1;"/><path d="M653.8819,487.7656 L653.8819,485.6094 L661.2725,485.6094 L661.2725,487.7656 L658.8038,487.7656 L658.8038,495.8438 L661.2725,495.8438 L661.2725,498 L653.8819,498 L653.8819,495.8438 L656.3506,495.8438 L656.3506,487.7656 L653.8819,487.7656 Z " fill="#000000"/><text fill="#000000" font-family="sans-serif" font-size="14" font-style="italic" lengthAdjust="spacing" textLength="69.6855" x="671.96" y="496.8467">Cloneable</text><line style="stroke:#181818;stroke-width:0.5;" x1="643.96" x2="743.6455" y1="508" y2="508"/><line style="stroke:#181818;stroke-width:0.5;" x1="643.96" x2="743.6455" y1="516" y2="516"/></g><!--reverse link Iterable to Collection--><g class="link" data-entity-1="Iterable" data-entity-2="Collection" data-source-line="6" data-uid="lnk4" id="link_Iterable_Collection"><path d="M312.8,76.26 C312.8,93.94 312.8,100.13 312.8,117.79" fill="none" id="Iterable-backto-Collection" style="stroke:#181818;stroke-width:1;"/><polygon fill="none" points="312.8,58.26,306.8,76.26,318.8,76.26,312.8,58.26" style="stroke:#181818;stroke-width:1;"/></g><!--reverse link Collection to AbstractCollection--><g class="link" data-entity-1="Collection" data-entity-2="AbstractCollection" data-source-line="8" data-uid="lnk6" id="link_Collection_AbstractCollection"><path d="M248.0341,174.2031 C211.4641,191.8231 177.77,208.06 141.23,225.67" fill="none" id="Collection-backto-AbstractCollection" style="stroke:#181818;stroke-width:1;stroke-dasharray:7.0,7.0;"/><polygon fill="none" points="264.25,166.39,245.4297,168.7978,250.6384,179.6084,264.25,166.39" style="stroke:#181818;stroke-width:1;"/></g><!--reverse link Collection to List--><g class="link" data-entity-1="Collection" data-entity-2="List" data-source-line="11" data-uid="lnk8" id="link_Collection_List"><path d="M312.8,184.26 C312.8,201.94 312.8,208.13 312.8,225.79" fill="none" id="Collection-backto-List" style="stroke:#181818;stroke-width:1;"/><polygon fill="none" points="312.8,166.26,306.8,184.26,318.8,184.26,312.8,166.26" style="stroke:#181818;stroke-width:1;"/></g><!--reverse link Collection to Queue--><g class="link" data-entity-1="Collection" data-entity-2="Queue" data-source-line="13" data-uid="lnk10" id="link_Collection_Queue"><path d="M367.5684,175.4312 C397.3084,193.0412 422.5,207.97 452.3,225.61" fill="none" id="Collection-backto-Queue" style="stroke:#181818;stroke-width:1;"/><polygon fill="none" points="352.08,166.26,364.5113,180.594,370.6254,170.2684,352.08,166.26" style="stroke:#181818;stroke-width:1;"/></g><!--reverse link Queue to Deque--><g class="link" data-entity-1="Queue" data-entity-2="Deque" data-source-line="15" data-uid="lnk12" id="link_Queue_Deque"><path d="M491.8,292.26 C491.8,309.94 491.8,316.13 491.8,333.79" fill="none" id="Queue-backto-Deque" style="stroke:#181818;stroke-width:1;"/><polygon fill="none" points="491.8,274.26,485.8,292.26,497.8,292.26,491.8,274.26" style="stroke:#181818;stroke-width:1;"/></g><!--reverse link AbstractCollection to AbstractList--><g class="link" data-entity-1="AbstractCollection" data-entity-2="AbstractList" data-source-line="17" data-uid="lnk14" id="link_AbstractCollection_AbstractList"><path d="M139.6598,284.7883 C164.0798,302.3983 182.89,315.97 207.36,333.61" fill="none" id="AbstractCollection-backto-AbstractList" style="stroke:#181818;stroke-width:1;"/><polygon fill="none" points="125.06,274.26,136.1503,289.6549,143.1692,279.9218,125.06,274.26" style="stroke:#181818;stroke-width:1;"/></g><!--reverse link List to AbstractList--><g class="link" data-entity-1="List" data-entity-2="AbstractList" data-source-line="17" data-uid="lnk15" id="link_List_AbstractList"><path d="M286.5739,289.0869 C274.4039,306.7669 267.94,316.13 255.78,333.79" fill="none" id="List-backto-AbstractList" style="stroke:#181818;stroke-width:1;stroke-dasharray:7.0,7.0;"/><polygon fill="none" points="296.78,274.26,281.6316,285.6849,291.5162,292.4889,296.78,274.26" style="stroke:#181818;stroke-width:1;"/></g><!--reverse link AbstractList to AbstractSequentialList--><g class="link" data-entity-1="AbstractList" data-entity-2="AbstractSequentialList" data-source-line="19" data-uid="lnk17" id="link_AbstractList_AbstractSequentialList"><path d="M239.8,400.43 C239.8,426.43 239.8,450.12 239.8,475.96" fill="none" id="AbstractList-backto-AbstractSequentialList" style="stroke:#181818;stroke-width:1;"/><polygon fill="none" points="239.8,382.43,233.8,400.43,245.8,400.43,239.8,382.43" style="stroke:#181818;stroke-width:1;"/></g><!--reverse link AbstractSequentialList to LinkedList--><g class="link" data-entity-1="AbstractSequentialList" data-entity-2="LinkedList" data-source-line="21" data-uid="lnk19" id="link_AbstractSequentialList_LinkedList"><path d="M306.962,531.6676 C341.642,546.9476 372.54,559.12 415.8,572 C455.13,583.71 500.56,592.6 535.54,598.49" fill="none" id="AbstractSequentialList-backto-LinkedList" style="stroke:#181818;stroke-width:1;"/><polygon fill="none" points="290.49,524.41,304.5428,537.1582,309.3812,526.1769,290.49,524.41" style="stroke:#181818;stroke-width:1;"/></g><!--reverse link Deque to LinkedList--><g class="link" data-entity-1="Deque" data-entity-2="LinkedList" data-source-line="21" data-uid="lnk20" id="link_Deque_LinkedList"><path d="M508.0889,399.0007 C527.3389,446.2707 563.96,536.18 583.25,583.55" fill="none" id="Deque-backto-LinkedList" style="stroke:#181818;stroke-width:1;stroke-dasharray:7.0,7.0;"/><polygon fill="none" points="501.3,382.33,502.532,401.2636,513.6458,396.7377,501.3,382.33" style="stroke:#181818;stroke-width:1;"/></g><!--reverse link Cloneable to LinkedList--><g class="link" data-entity-1="Cloneable" data-entity-2="LinkedList" data-source-line="21" data-uid="lnk22" id="link_Cloneable_LinkedList"><path d="M659.2155,537.2938 C642.3755,554.9738 631.74,566.13 614.91,583.79" fill="none" id="Cloneable-backto-LinkedList" style="stroke:#181818;stroke-width:1;stroke-dasharray:7.0,7.0;"/><polygon fill="none" points="671.63,524.26,654.8709,533.1556,663.5601,541.432,671.63,524.26" style="stroke:#181818;stroke-width:1;"/></g><!--reverse link Serializable to LinkedList--><g class="link" data-entity-1="Serializable" data-entity-2="LinkedList" data-source-line="21" data-uid="lnk26" id="link_Serializable_LinkedList"><path d="M858.7708,535.4955 C838.4008,551.3955 823.59,560.47 794.8,572 C748.21,590.66 691.66,599.38 650.26,603.45" fill="none" id="Serializable-backto-LinkedList" style="stroke:#181818;stroke-width:1;stroke-dasharray:7.0,7.0;"/><polygon fill="none" points="872.96,524.42,855.079,530.7658,862.4626,540.2252,872.96,524.42" style="stroke:#181818;stroke-width:1;"/></g><!--SRC=[XP7F2i8m3CRlVOhUl8mnBvv4aEb1s4LyWcoB4DUbiwaYFhtx8xDJXhSs-NtVbn2fY1jmK6ks9GesUfaaQY5ZsG5NNNcLA4NiqPsXG7re7v0RNEytOJcrnc3XoNBRqFZmoAMCi5AGYtTGU5qO4D7RztSgexenM2Dx2VnK69EH-30Wn3xKyOOt_8_jy3h5UjtihD_Plpk42tJqhDMfIsPFOEPC1_cWoeWhBEV8gLSuGhzVf5DZ6RihHFe2TuZ9nYTqBK_F_ZOl]--></g></svg>