<svg xmlns="http://www.w3.org/2000/svg" xmlns:xlink="http://www.w3.org/1999/xlink" contentStyleType="text/css" data-diagram-type="CLASS" height="318px" preserveAspectRatio="none" style="width:302px;height:318px;background:#FFFFFF;" version="1.1" viewBox="0 0 302 318" width="302px" zoomAndPan="magnify"><title>&lt;b&gt;FutureTask&lt;/b&gt;</title><defs/><g><text fill="#000000" font-family="sans-serif" font-size="14" font-weight="bold" lengthAdjust="spacing" textLength="89.2295" x="99.433" y="22.9951">FutureTask</text><!--class Future--><g class="entity" data-entity="Future" data-source-line="6" data-uid="ent0002" id="entity_Future"><rect fill="#F1F1F1" height="48" rx="2.5" ry="2.5" style="stroke:#181818;stroke-width:0.5;" width="89.8662" x="7" y="47.2969"/><ellipse cx="22" cy="63.2969" fill="#B4A7E5" rx="11" ry="11" style="stroke:#181818;stroke-width:1;"/><path d="M17.9219,59.0625 L17.9219,56.9063 L25.3125,56.9063 L25.3125,59.0625 L22.8438,59.0625 L22.8438,67.1406 L25.3125,67.1406 L25.3125,69.2969 L17.9219,69.2969 L17.9219,67.1406 L20.3906,67.1406 L20.3906,59.0625 L17.9219,59.0625 Z " fill="#000000"/><text fill="#000000" font-family="sans-serif" font-size="14" font-style="italic" lengthAdjust="spacing" textLength="45.6572" x="36" y="68.1436">Future</text><rect fill="#FFFFFF" height="15.9688" style="stroke:#181818;stroke-width:1;stroke-dasharray:2.0,2.0;" width="10.209" x="89.6572" y="44.2969"/><text fill="#000000" font-family="sans-serif" font-size="12" font-style="italic" lengthAdjust="spacing" textLength="8.209" x="90.6572" y="56.4355">V</text><line style="stroke:#181818;stroke-width:0.5;" x1="8" x2="95.8662" y1="79.2969" y2="79.2969"/><line style="stroke:#181818;stroke-width:0.5;" x1="8" x2="95.8662" y1="87.2969" y2="87.2969"/></g><!--class RunnableFuture--><g class="entity" data-entity="RunnableFuture" data-source-line="8" data-uid="ent0003" id="entity_RunnableFuture"><rect fill="#F1F1F1" height="48" rx="2.5" ry="2.5" style="stroke:#181818;stroke-width:0.5;" width="156.1816" x="70.84" y="155.2969"/><ellipse cx="85.84" cy="171.2969" fill="#B4A7E5" rx="11" ry="11" style="stroke:#181818;stroke-width:1;"/><path d="M81.7619,167.0625 L81.7619,164.9063 L89.1525,164.9063 L89.1525,167.0625 L86.6838,167.0625 L86.6838,175.1406 L89.1525,175.1406 L89.1525,177.2969 L81.7619,177.2969 L81.7619,175.1406 L84.2306,175.1406 L84.2306,167.0625 L81.7619,167.0625 Z " fill="#000000"/><text fill="#000000" font-family="sans-serif" font-size="14" font-style="italic" lengthAdjust="spacing" textLength="111.9727" x="99.84" y="176.1436">RunnableFuture</text><rect fill="#FFFFFF" height="15.9688" style="stroke:#181818;stroke-width:1;stroke-dasharray:2.0,2.0;" width="10.209" x="219.8127" y="152.2969"/><text fill="#000000" font-family="sans-serif" font-size="12" font-style="italic" lengthAdjust="spacing" textLength="8.209" x="220.8127" y="164.4355">V</text><line style="stroke:#181818;stroke-width:0.5;" x1="71.84" x2="226.0216" y1="187.2969" y2="187.2969"/><line style="stroke:#181818;stroke-width:0.5;" x1="71.84" x2="226.0216" y1="195.2969" y2="195.2969"/></g><!--class Runnable--><g class="entity" data-entity="Runnable" data-source-line="8" data-uid="ent0004" id="entity_Runnable"><rect fill="#F1F1F1" height="48" rx="2.5" ry="2.5" style="stroke:#181818;stroke-width:0.5;" width="98.3154" x="196.78" y="47.2969"/><ellipse cx="211.78" cy="63.2969" fill="#B4A7E5" rx="11" ry="11" style="stroke:#181818;stroke-width:1;"/><path d="M207.7019,59.0625 L207.7019,56.9063 L215.0925,56.9063 L215.0925,59.0625 L212.6238,59.0625 L212.6238,67.1406 L215.0925,67.1406 L215.0925,69.2969 L207.7019,69.2969 L207.7019,67.1406 L210.1706,67.1406 L210.1706,59.0625 L207.7019,59.0625 Z " fill="#000000"/><text fill="#000000" font-family="sans-serif" font-size="14" font-style="italic" lengthAdjust="spacing" textLength="66.3154" x="225.78" y="68.1436">Runnable</text><line style="stroke:#181818;stroke-width:0.5;" x1="197.78" x2="294.0954" y1="79.2969" y2="79.2969"/><line style="stroke:#181818;stroke-width:0.5;" x1="197.78" x2="294.0954" y1="87.2969" y2="87.2969"/></g><!--class FutureTask--><g class="entity" data-entity="FutureTask" data-source-line="10" data-uid="ent0007" id="entity_FutureTask"><rect fill="#F1F1F1" height="48" rx="2.5" ry="2.5" style="stroke:#181818;stroke-width:0.5;" width="122.3984" x="87.73" y="263.2969"/><ellipse cx="102.73" cy="279.2969" fill="#ADD1B2" rx="11" ry="11" style="stroke:#181818;stroke-width:1;"/><path d="M105.6988,284.9375 Q105.1206,285.2344 104.48,285.375 Q103.8394,285.5313 103.1363,285.5313 Q100.6363,285.5313 99.3081,283.8906 Q97.9956,282.2344 97.9956,279.1094 Q97.9956,275.9844 99.3081,274.3281 Q100.6363,272.6719 103.1363,272.6719 Q103.8394,272.6719 104.48,272.8281 Q105.1363,272.9844 105.6988,273.2813 L105.6988,276 Q105.0738,275.4219 104.48,275.1563 Q103.8863,274.875 103.2613,274.875 Q101.9175,274.875 101.23,275.9531 Q100.5425,277.0156 100.5425,279.1094 Q100.5425,281.2031 101.23,282.2813 Q101.9175,283.3438 103.2613,283.3438 Q103.8863,283.3438 104.48,283.0781 Q105.0738,282.7969 105.6988,282.2188 L105.6988,284.9375 Z " fill="#000000"/><text fill="#000000" font-family="sans-serif" font-size="14" lengthAdjust="spacing" textLength="78.1895" x="116.73" y="284.1436">FutureTask</text><rect fill="#FFFFFF" height="15.9688" style="stroke:#181818;stroke-width:1;stroke-dasharray:2.0,2.0;" width="10.209" x="202.9195" y="260.2969"/><text fill="#000000" font-family="sans-serif" font-size="12" font-style="italic" lengthAdjust="spacing" textLength="8.209" x="203.9195" y="272.4355">V</text><line style="stroke:#181818;stroke-width:0.5;" x1="88.73" x2="209.1284" y1="295.2969" y2="295.2969"/><line style="stroke:#181818;stroke-width:0.5;" x1="88.73" x2="209.1284" y1="303.2969" y2="303.2969"/></g><!--reverse link Runnable to RunnableFuture--><g class="link" data-entity-1="Runnable" data-entity-2="RunnableFuture" data-source-line="8" data-uid="lnk5" id="link_Runnable_RunnableFuture"><path d="M212.4978,108.8356 C196.3178,126.5156 186.33,137.4269 170.17,155.0869" fill="none" id="Runnable-backto-RunnableFuture" style="stroke:#181818;stroke-width:1;"/><polygon fill="none" points="224.65,95.5569,208.0716,104.7849,216.9241,112.8863,224.65,95.5569" style="stroke:#181818;stroke-width:1;"/></g><!--reverse link Future to RunnableFuture--><g class="link" data-entity-1="Future" data-entity-2="RunnableFuture" data-source-line="8" data-uid="lnk6" id="link_Future_RunnableFuture"><path d="M85.3681,108.8394 C101.5381,126.5194 111.54,137.4269 127.7,155.0869" fill="none" id="Future-backto-RunnableFuture" style="stroke:#181818;stroke-width:1;"/><polygon fill="none" points="73.22,95.5569,80.9406,112.8887,89.7956,104.79,73.22,95.5569" style="stroke:#181818;stroke-width:1;"/></g><!--reverse link RunnableFuture to FutureTask--><g class="link" data-entity-1="RunnableFuture" data-entity-2="FutureTask" data-source-line="10" data-uid="lnk8" id="link_RunnableFuture_FutureTask"><path d="M148.93,221.5569 C148.93,239.2369 148.93,245.4269 148.93,263.0869" fill="none" id="RunnableFuture-backto-FutureTask" style="stroke:#181818;stroke-width:1;stroke-dasharray:7.0,7.0;"/><polygon fill="none" points="148.93,203.5569,142.93,221.5569,154.93,221.5569,148.93,203.5569" style="stroke:#181818;stroke-width:1;"/></g><!--SRC=[NOqz2W8n44RxESLqDeAnsIfiwG54x2Ux8uGaOyXCmEEhh0IrVU_xqHIbKgE2SbzPkUBHETZfm8qalV7a02nQPlHXFdNhZI-aoH_23135kDreOToCl_x0SnUXa7b8v8Unh3hC_bC4M3AfujV1AnrBpLnOJF-cu0a0]--></g></svg>