<svg xmlns="http://www.w3.org/2000/svg" xmlns:xlink="http://www.w3.org/1999/xlink" contentStyleType="text/css" data-diagram-type="CLASS" height="567px" preserveAspectRatio="none" style="width:560px;height:567px;background:#FFFFFF;" version="1.1" viewBox="0 0 560 567" width="560px" zoomAndPan="magnify"><title>**&#36845;&#20195;&#22120;&#27169;&#24335;**</title><defs/><g><text fill="#000000" font-family="Hiragino Sans GB" font-size="30" font-weight="bold" lengthAdjust="spacing" textLength="149.9998" x="198.4002" y="37.8467">&#36845;&#20195;&#22120;&#27169;&#24335;</text><!--class Iterator--><g class="entity" data-entity="Iterator" data-source-line="7" data-uid="ent0002" id="entity_Iterator"><rect fill="#F1F1F1" height="113.1875" rx="2.5" ry="2.5" style="stroke:#181818;stroke-width:0.5;" width="174.6133" x="345.49" y="177.3219"/><ellipse cx="402.3582" cy="193.3219" fill="#A9DCDF" rx="11" ry="11" style="stroke:#181818;stroke-width:1;"/><path d="M402.4675,188.6656 L401.3113,193.7437 L403.6394,193.7437 L402.4675,188.6656 Z M400.9832,186.4312 L403.9675,186.4312 L407.3269,198.8219 L404.8738,198.8219 L404.1082,195.7594 L400.8269,195.7594 L400.0769,198.8219 L397.6394,198.8219 L400.9832,186.4312 Z " fill="#000000"/><text fill="#000000" font-family="Hiragino Sans GB" font-size="14" font-style="italic" lengthAdjust="spacing" textLength="52.377" x="422.8582" y="198.1686">Iterator</text><line style="stroke:#181818;stroke-width:0.5;" x1="346.49" x2="519.1033" y1="209.3219" y2="209.3219"/><line style="stroke:#181818;stroke-width:0.5;" x1="346.49" x2="519.1033" y1="217.3219" y2="217.3219"/><ellipse cx="356.49" cy="230.9703" fill="#84BE84" rx="3" ry="3" style="stroke:#038048;stroke-width:1;"/><text fill="#000000" font-family="Hiragino Sans GB" font-size="14" font-style="italic" lengthAdjust="spacing" textLength="93.0439" x="365.49" y="234.317">first() :Object</text><ellipse cx="356.49" cy="247.2672" fill="#84BE84" rx="3" ry="3" style="stroke:#038048;stroke-width:1;"/><text fill="#000000" font-family="Hiragino Sans GB" font-size="14" font-style="italic" lengthAdjust="spacing" textLength="96.9473" x="365.49" y="250.6139">next() :Object</text><ellipse cx="356.49" cy="263.5641" fill="#84BE84" rx="3" ry="3" style="stroke:#038048;stroke-width:1;"/><text fill="#000000" font-family="Hiragino Sans GB" font-size="14" font-style="italic" lengthAdjust="spacing" textLength="124.0791" x="365.49" y="266.9107">isDone() :boolean</text><ellipse cx="356.49" cy="279.8609" fill="#84BE84" rx="3" ry="3" style="stroke:#038048;stroke-width:1;"/><text fill="#000000" font-family="Hiragino Sans GB" font-size="14" font-style="italic" lengthAdjust="spacing" textLength="148.6133" x="365.49" y="283.2076">currentItem() :Object</text></g><g class="entity" data-entity="GMN3" data-source-line="13" data-uid="ent0004" id="entity_GMN3"><path d="M311.8,61.9219 L311.8,117.3203 A0,0 0 0 0 311.8,117.3203 L428.8,117.3203 L432.8,177.0419 L436.8,117.3203 L553.8003,117.3203 A0,0 0 0 0 553.8003,117.3203 L553.8003,71.9219 L543.8003,61.9219 L311.8,61.9219 A0,0 0 0 0 311.8,61.9219" fill="#FEFFDD" style="stroke:#181818;stroke-width:0.5;"/><path d="M543.8003,61.9219 L543.8003,71.9219 L553.8003,71.9219 L543.8003,61.9219" fill="#FEFFDD" style="stroke:#181818;stroke-width:0.5;"/><text fill="#000000" font-family="Hiragino Sans GB" font-size="13" lengthAdjust="spacing" textLength="221.0003" x="317.8" y="78.9888">&#36845;&#20195;&#25277;&#35937;&#31867;&#65292;&#29992;&#20110;&#23450;&#20041;&#24471;&#21040;&#24320;&#22987;&#23545;&#35937;&#12289;</text><text fill="#000000" font-family="Hiragino Sans GB" font-size="13" lengthAdjust="spacing" textLength="208.0002" x="317.8" y="94.1216">&#24471;&#21040;&#19979;&#19968;&#20010;&#23545;&#35937;&#12289;&#21028;&#26029;&#26159;&#21542;&#21040;&#32467;&#23614;&#12289;</text><text fill="#000000" font-family="Hiragino Sans GB" font-size="13" lengthAdjust="spacing" textLength="195.0002" x="317.8" y="109.2544">&#24403;&#21069;&#23545;&#35937;&#31561;&#25277;&#35937;&#26041;&#27861;&#65292;&#32479;&#19968;&#25509;&#21475;&#12290;</text></g><!--class ConcreteIterator--><g class="entity" data-entity="ConcreteIterator" data-source-line="15" data-uid="ent0006" id="entity_ConcreteIterator"><rect fill="#F1F1F1" height="48" rx="2.5" ry="2.5" style="stroke:#181818;stroke-width:0.5;" width="147.7598" x="306.92" y="358.6519"/><ellipse cx="321.92" cy="374.6519" fill="#ADD1B2" rx="11" ry="11" style="stroke:#181818;stroke-width:1;"/><path d="M324.8888,380.2925 Q324.3106,380.5894 323.67,380.73 Q323.0294,380.8862 322.3263,380.8862 Q319.8263,380.8862 318.4981,379.2456 Q317.1856,377.5894 317.1856,374.4644 Q317.1856,371.3394 318.4981,369.6831 Q319.8263,368.0269 322.3263,368.0269 Q323.0294,368.0269 323.67,368.1831 Q324.3263,368.3394 324.8888,368.6362 L324.8888,371.355 Q324.2638,370.7769 323.67,370.5112 Q323.0763,370.23 322.4513,370.23 Q321.1075,370.23 320.42,371.3081 Q319.7325,372.3706 319.7325,374.4644 Q319.7325,376.5581 320.42,377.6362 Q321.1075,378.6987 322.4513,378.6987 Q323.0763,378.6987 323.67,378.4331 Q324.2638,378.1519 324.8888,377.5737 L324.8888,380.2925 Z " fill="#000000"/><text fill="#000000" font-family="Hiragino Sans GB" font-size="14" lengthAdjust="spacing" textLength="115.7598" x="335.92" y="379.4986">ConcreteIterator</text><line style="stroke:#181818;stroke-width:0.5;" x1="307.92" x2="453.6798" y1="390.6519" y2="390.6519"/><line style="stroke:#181818;stroke-width:0.5;" x1="307.92" x2="453.6798" y1="398.6519" y2="398.6519"/></g><g class="entity" data-entity="GMN7" data-source-line="17" data-uid="ent0008" id="entity_GMN7"><path d="M287.91,474.8019 L287.91,530.2003 A0,0 0 0 0 287.91,530.2003 L491.6782,530.2003 A0,0 0 0 0 491.6782,530.2003 L491.6782,484.8019 L481.6782,474.8019 L391.74,474.8019 L382.57,406.9419 L383.74,474.8019 L287.91,474.8019 A0,0 0 0 0 287.91,474.8019" fill="#FEFFDD" style="stroke:#181818;stroke-width:0.5;"/><path d="M481.6782,474.8019 L481.6782,484.8019 L491.6782,484.8019 L481.6782,474.8019" fill="#FEFFDD" style="stroke:#181818;stroke-width:0.5;"/><text fill="#000000" font-family="Hiragino Sans GB" font-size="13" lengthAdjust="spacing" textLength="182.7682" x="293.91" y="491.8688">&#20855;&#20307;&#36845;&#20195;&#22120;&#31867;&#65292;&#32487;&#25215; Iterator&#65292;</text><text fill="#000000" font-family="Hiragino Sans GB" font-size="13" lengthAdjust="spacing" textLength="182.0002" x="293.91" y="507.0016">&#23454;&#29616;&#24320;&#22987;&#12289;&#19979;&#19968;&#20010;&#12289;&#26159;&#21542;&#32467;&#23614;&#12289;</text><text fill="#000000" font-family="Hiragino Sans GB" font-size="13" lengthAdjust="spacing" textLength="104.0001" x="293.91" y="522.1344">&#24403;&#21069;&#23545;&#35937;&#31561;&#26041;&#27861;&#12290;</text></g><!--class Aggregate--><g class="entity" data-entity="Aggregate" data-source-line="19" data-uid="ent0010" id="entity_Aggregate"><rect fill="#F1F1F1" height="64.2969" rx="2.5" ry="2.5" style="stroke:#181818;stroke-width:0.5;" width="195.5928" x="7" y="201.7619"/><ellipse cx="63.9023" cy="217.7619" fill="#A9DCDF" rx="11" ry="11" style="stroke:#181818;stroke-width:1;"/><path d="M64.0117,213.1056 L62.8555,218.1837 L65.1836,218.1837 L64.0117,213.1056 Z M62.5273,210.8712 L65.5117,210.8712 L68.8711,223.2619 L66.418,223.2619 L65.6523,220.1994 L62.3711,220.1994 L61.6211,223.2619 L59.1836,223.2619 L62.5273,210.8712 Z " fill="#000000"/><text fill="#000000" font-family="Hiragino Sans GB" font-size="14" font-style="italic" lengthAdjust="spacing" textLength="73.2881" x="84.4023" y="222.6086">Aggregate</text><line style="stroke:#181818;stroke-width:0.5;" x1="8" x2="201.5928" y1="233.7619" y2="233.7619"/><line style="stroke:#181818;stroke-width:0.5;" x1="8" x2="201.5928" y1="241.7619" y2="241.7619"/><ellipse cx="18" cy="255.4103" fill="#84BE84" rx="3" ry="3" style="stroke:#038048;stroke-width:1;"/><text fill="#000000" font-family="Hiragino Sans GB" font-size="14" font-style="italic" lengthAdjust="spacing" textLength="169.5928" x="27" y="258.757">createIterator() :Iterator</text></g><g class="entity" data-entity="GMN11" data-source-line="22" data-uid="ent0012" id="entity_GMN11"><path d="M61.8,77.0519 L61.8,102.1847 A0,0 0 0 0 61.8,102.1847 L100.8,102.1847 L104.8,201.4119 L108.8,102.1847 L147.8001,102.1847 A0,0 0 0 0 147.8001,102.1847 L147.8001,87.0519 L137.8001,77.0519 L61.8,77.0519 A0,0 0 0 0 61.8,77.0519" fill="#FEFFDD" style="stroke:#181818;stroke-width:0.5;"/><path d="M137.8001,77.0519 L137.8001,87.0519 L147.8001,87.0519 L137.8001,77.0519" fill="#FEFFDD" style="stroke:#181818;stroke-width:0.5;"/><text fill="#000000" font-family="Hiragino Sans GB" font-size="13" lengthAdjust="spacing" textLength="65.0001" x="67.8" y="94.1188">&#32858;&#38598;&#25277;&#35937;&#31867;</text></g><!--class ConcreteAggregate--><g class="entity" data-entity="ConcreteAggregate" data-source-line="24" data-uid="ent0014" id="entity_ConcreteAggregate"><rect fill="#F1F1F1" height="64.2969" rx="2.5" ry="2.5" style="stroke:#181818;stroke-width:0.5;" width="195.5928" x="67" y="350.5019"/><ellipse cx="94.1148" cy="366.5019" fill="#ADD1B2" rx="11" ry="11" style="stroke:#181818;stroke-width:1;"/><path d="M97.0836,372.1425 Q96.5055,372.4394 95.8648,372.58 Q95.2242,372.7363 94.5211,372.7363 Q92.0211,372.7363 90.693,371.0956 Q89.3805,369.4394 89.3805,366.3144 Q89.3805,363.1894 90.693,361.5331 Q92.0211,359.8769 94.5211,359.8769 Q95.2242,359.8769 95.8648,360.0331 Q96.5211,360.1894 97.0836,360.4863 L97.0836,363.205 Q96.4586,362.6269 95.8648,362.3613 Q95.2711,362.08 94.6461,362.08 Q93.3023,362.08 92.6148,363.1581 Q91.9273,364.2206 91.9273,366.3144 Q91.9273,368.4081 92.6148,369.4863 Q93.3023,370.5488 94.6461,370.5488 Q95.2711,370.5488 95.8648,370.2831 Q96.4586,370.0019 97.0836,369.4238 L97.0836,372.1425 Z " fill="#000000"/><text fill="#000000" font-family="Hiragino Sans GB" font-size="14" lengthAdjust="spacing" textLength="136.6709" x="110.807" y="371.3486">ConcreteAggregate</text><line style="stroke:#181818;stroke-width:0.5;" x1="68" x2="261.5928" y1="382.5019" y2="382.5019"/><line style="stroke:#181818;stroke-width:0.5;" x1="68" x2="261.5928" y1="390.5019" y2="390.5019"/><ellipse cx="78" cy="404.1503" fill="#84BE84" rx="3" ry="3" style="stroke:#038048;stroke-width:1;"/><text fill="#000000" font-family="Hiragino Sans GB" font-size="14" lengthAdjust="spacing" textLength="169.5928" x="87" y="407.497">createIterator() :Iterator</text></g><g class="entity" data-entity="GMN15" data-source-line="27" data-uid="ent0016" id="entity_GMN15"><path d="M42.7,489.9319 L42.7,515.0647 A0,0 0 0 0 42.7,515.0647 L252.8857,515.0647 A0,0 0 0 0 252.8857,515.0647 L252.8857,499.9319 L242.8857,489.9319 L153.5,489.9319 L160.24,415.2319 L145.5,489.9319 L42.7,489.9319 A0,0 0 0 0 42.7,489.9319" fill="#FEFFDD" style="stroke:#181818;stroke-width:0.5;"/><path d="M242.8857,489.9319 L242.8857,499.9319 L252.8857,499.9319 L242.8857,489.9319" fill="#FEFFDD" style="stroke:#181818;stroke-width:0.5;"/><text fill="#000000" font-family="Hiragino Sans GB" font-size="13" lengthAdjust="spacing" textLength="189.1857" x="48.7" y="506.9988">&#20855;&#20307;&#32858;&#38598;&#31867;&#65292;&#32487;&#25215; Aggregate&#12290;</text></g><!--class Client--><g class="entity" data-entity="Client" data-source-line="29" data-uid="ent0018" id="entity_Client"><rect fill="#F1F1F1" height="48" rx="2.5" ry="2.5" style="stroke:#181818;stroke-width:0.5;" width="72.5303" x="237.53" y="209.9119"/><ellipse cx="252.53" cy="225.9119" fill="#ADD1B2" rx="11" ry="11" style="stroke:#181818;stroke-width:1;"/><path d="M255.4988,231.5525 Q254.9206,231.8494 254.28,231.99 Q253.6394,232.1462 252.9363,232.1462 Q250.4363,232.1462 249.1081,230.5056 Q247.7956,228.8494 247.7956,225.7244 Q247.7956,222.5994 249.1081,220.9431 Q250.4363,219.2869 252.9363,219.2869 Q253.6394,219.2869 254.28,219.4431 Q254.9363,219.5994 255.4988,219.8962 L255.4988,222.615 Q254.8738,222.0369 254.28,221.7712 Q253.6863,221.49 253.0613,221.49 Q251.7175,221.49 251.03,222.5681 Q250.3425,223.6306 250.3425,225.7244 Q250.3425,227.8181 251.03,228.8962 Q251.7175,229.9587 253.0613,229.9587 Q253.6863,229.9587 254.28,229.6931 Q254.8738,229.4119 255.4988,228.8337 L255.4988,231.5525 Z " fill="#000000"/><text fill="#000000" font-family="Hiragino Sans GB" font-size="14" lengthAdjust="spacing" textLength="40.5303" x="266.53" y="230.7586">Client</text><line style="stroke:#181818;stroke-width:0.5;" x1="238.53" x2="309.0603" y1="241.9119" y2="241.9119"/><line style="stroke:#181818;stroke-width:0.5;" x1="238.53" x2="309.0603" y1="249.9119" y2="249.9119"/></g><!--reverse link Aggregate to Client--><g class="link" data-entity-1="Aggregate" data-entity-2="Client" data-source-line="32" data-uid="lnk20" id="link_Aggregate_Client"><path codeLine="32" d="M208.83,233.9119 C220.29,233.9119 225.75,233.9119 237.2,233.9119" fill="none" id="Aggregate-backto-Client" style="stroke:#181818;stroke-width:1;"/><polygon fill="#181818" points="202.83,233.9119,211.83,237.9119,207.83,233.9119,211.83,229.9119,202.83,233.9119" style="stroke:#181818;stroke-width:1;"/></g><!--link Client to Iterator--><g class="link" data-entity-1="Client" data-entity-2="Iterator" data-source-line="33" data-uid="lnk21" id="link_Client_Iterator"><path codeLine="33" d="M310.44,233.9119 C322.07,233.9119 327.7,233.9119 339.33,233.9119" fill="none" id="Client-to-Iterator" style="stroke:#181818;stroke-width:1;"/><polygon fill="#181818" points="345.33,233.9119,336.33,229.9119,340.33,233.9119,336.33,237.9119,345.33,233.9119" style="stroke:#181818;stroke-width:1;"/></g><!--reverse link Aggregate to ConcreteAggregate--><g class="link" data-entity-1="Aggregate" data-entity-2="ConcreteAggregate" data-source-line="35" data-uid="lnk22" id="link_Aggregate_ConcreteAggregate"><path codeLine="35" d="M124.4802,283.0539 C134.6002,307.8139 141.83,325.4819 151.95,350.2319" fill="none" id="Aggregate-backto-ConcreteAggregate" style="stroke:#181818;stroke-width:1;"/><polygon fill="none" points="117.67,266.3919,118.9262,285.3239,130.0341,280.7838,117.67,266.3919" style="stroke:#181818;stroke-width:1;"/></g><!--reverse link Iterator to ConcreteIterator--><g class="link" data-entity-1="Iterator" data-entity-2="ConcreteIterator" data-source-line="36" data-uid="lnk23" id="link_Iterator_ConcreteIterator"><path codeLine="36" d="M406.9781,307.7782 C398.6581,331.2582 395.44,340.3219 389.01,358.4719" fill="none" id="Iterator-backto-ConcreteIterator" style="stroke:#181818;stroke-width:1;"/><polygon fill="none" points="412.99,290.8119,401.3226,305.7742,412.6335,309.7822,412.99,290.8119" style="stroke:#181818;stroke-width:1;"/></g><!--reverse link ConcreteAggregate to ConcreteIterator--><g class="link" data-entity-1="ConcreteAggregate" data-entity-2="ConcreteIterator" data-source-line="38" data-uid="lnk25" id="link_ConcreteAggregate_ConcreteIterator"><path codeLine="38" d="M268.6648,406.8022 C283.2748,407.4122 291.9,406.4519 306.51,404.4219" fill="none" id="ConcreteAggregate-backto-ConcreteIterator" style="stroke:#181818;stroke-width:1;"/><polygon fill="#181818" points="262.67,406.5519,271.4953,410.9238,267.6656,406.7605,271.829,402.9308,262.67,406.5519" style="stroke:#181818;stroke-width:1;"/></g><!--reverse link ConcreteIterator to ConcreteAggregate--><g class="link" data-entity-1="ConcreteIterator" data-entity-2="ConcreteAggregate" data-source-line="39" data-uid="lnk26" id="link_ConcreteIterator_ConcreteAggregate"><path codeLine="39" d="M300.5676,360.0621 C285.9576,358.0221 277.28,358.1419 262.67,358.7519" fill="none" id="ConcreteIterator-backto-ConcreteAggregate" style="stroke:#181818;stroke-width:1;stroke-dasharray:7.0,7.0;"/><polygon fill="#181818" points="306.51,360.8919,298.1496,355.6857,301.558,360.2004,297.0433,363.6088,306.51,360.8919" style="stroke:#181818;stroke-width:1;"/></g><text fill="#888888" font-family="Hiragino Sans GB" font-size="20" lengthAdjust="spacing" textLength="390.6152" x="78.0925" y="554.7648">D&#29916;&#21733; &#183; https://www.diguage.com &#183; &#20986;&#21697;</text><!--SRC=[XPFBRjD058RtynIp0uAILh10YgfAGCLb0ujksKoSYJjWpqJZYO8ebH8aeA6G8haKA0XKbT88ARs8HPCwQILUfHwxh7W5ndRYs0cNtUZyP_xppN_iSzO3Gik88nDILiGMBiChqs1K54GO-0QZOfuyml1oKYhY4geO8X3l81F3MuGZdL06vn6ruCrh08INOIPpTj9sdItvlkMrDcLlDPC101KimP4ce6OWouAt1UP8C0uNmKMuE1INO8bmIvo_0FDt2_Un9j8YnG__gX5hZb4Sg0N638neMjOgd6Cgr5WpuR04A1CO2bREmuZPUz4_EzZq3vnVlPV-MiizQihT3RVRaCTlvVA-xDNapehSwwgUqrhz7etARcV5xTJSphTOaSjVlFMszsvFllwg6dp7bll7qOs-BHkleaQ_tOZcUUjTx_kROAJpMJbvpMsvkdLQUm90bDPrHZME1KwaDa0lC26OcOVowQ7Rj-FS1mzmThp6IPorggZvkv_yvk0X2YX6L-S8zn-i8MM8DRRDgxhEiOuKpzWw5JKQOGV93y_fxEiRFpyyYxCVVtRQ_l-UOw64vgb4OiDanWPH7qYOB1YSimOkYUpig3qMED4N0YMU34QCCu-psKbq4EykfOyC9dOyd3vfDT4waylzeItnwvQOoeN7l_MbQH1Lu9nlVvJsDlnn21U4A5lvgQbgjPeh4hs2T9pJc1b8ylcHjElWDm00]--></g></svg>