<svg xmlns="http://www.w3.org/2000/svg" xmlns:xlink="http://www.w3.org/1999/xlink" contentStyleType="text/css" data-diagram-type="CLASS" height="392px" preserveAspectRatio="none" style="width:622px;height:392px;background:#FFFFFF;" version="1.1" viewBox="0 0 622 392" width="622px" zoomAndPan="magnify"><title>&lt;b&gt;&#24037;&#21378;&#26041;&#27861;&#27169;&#24335;&lt;/b&gt;</title><defs/><g><text fill="#000000" font-family="Hiragino Sans GB" font-size="14" font-weight="bold" lengthAdjust="spacing" textLength="83.9996" x="262.1044" y="22.9951">&#24037;&#21378;&#26041;&#27861;&#27169;&#24335;</text><!--class Product--><g class="entity" data-entity="Product" data-source-line="5" data-uid="ent0002" id="entity_Product"><rect fill="#F1F1F1" height="48" rx="2.5" ry="2.5" style="stroke:#181818;stroke-width:0.5;" width="85.71" x="454.78" y="136.5769"/><ellipse cx="469.78" cy="152.5769" fill="#A9DCDF" rx="11" ry="11" style="stroke:#181818;stroke-width:1;"/><path d="M469.8894,147.9206 L468.7331,152.9988 L471.0613,152.9988 L469.8894,147.9206 Z M468.405,145.6863 L471.3894,145.6863 L474.7488,158.0769 L472.2956,158.0769 L471.53,155.0144 L468.2488,155.0144 L467.4988,158.0769 L465.0613,158.0769 L468.405,145.6863 Z " fill="#000000"/><text fill="#000000" font-family="Hiragino Sans GB" font-size="14" font-style="italic" lengthAdjust="spacing" textLength="53.71" x="483.78" y="157.4236">Product</text><line style="stroke:#181818;stroke-width:0.5;" x1="455.78" x2="539.49" y1="168.5769" y2="168.5769"/><line style="stroke:#181818;stroke-width:0.5;" x1="455.78" x2="539.49" y1="176.5769" y2="176.5769"/></g><g class="entity" data-entity="GMN3" data-source-line="7" data-uid="ent0004" id="entity_GMN3"><path d="M384.14,43.2969 L384.14,68.4297 A0,0 0 0 0 384.14,68.4297 L494.52,68.4297 L497.86,136.3169 L502.52,68.4297 L613.1402,68.4297 A0,0 0 0 0 613.1402,68.4297 L613.1402,53.2969 L603.1402,43.2969 L384.14,43.2969 A0,0 0 0 0 384.14,43.2969" fill="#FEFFDD" style="stroke:#181818;stroke-width:0.5;"/><path d="M603.1402,43.2969 L603.1402,53.2969 L613.1402,53.2969 L603.1402,43.2969" fill="#FEFFDD" style="stroke:#181818;stroke-width:0.5;"/><text fill="#000000" font-family="Hiragino Sans GB" font-size="13" lengthAdjust="spacing" textLength="208.0002" x="390.14" y="60.3638">&#23450;&#20041;&#24037;&#21378;&#26041;&#27861;&#25152;&#21019;&#24314;&#30340;&#23545;&#35937;&#30340;&#25509;&#21475;&#12290;</text></g><!--class ConcreteProduct--><g class="entity" data-entity="ConcreteProduct" data-source-line="9" data-uid="ent0006" id="entity_ConcreteProduct"><rect fill="#F1F1F1" height="48" rx="2.5" ry="2.5" style="stroke:#181818;stroke-width:0.5;" width="149.0928" x="423.09" y="252.7269"/><ellipse cx="438.09" cy="268.7269" fill="#ADD1B2" rx="11" ry="11" style="stroke:#181818;stroke-width:1;"/><path d="M441.0588,274.3675 Q440.4806,274.6644 439.84,274.805 Q439.1994,274.9613 438.4963,274.9613 Q435.9963,274.9613 434.6681,273.3206 Q433.3556,271.6644 433.3556,268.5394 Q433.3556,265.4144 434.6681,263.7581 Q435.9963,262.1019 438.4963,262.1019 Q439.1994,262.1019 439.84,262.2581 Q440.4963,262.4144 441.0588,262.7113 L441.0588,265.43 Q440.4338,264.8519 439.84,264.5863 Q439.2463,264.305 438.6213,264.305 Q437.2775,264.305 436.59,265.3831 Q435.9025,266.4456 435.9025,268.5394 Q435.9025,270.6331 436.59,271.7113 Q437.2775,272.7738 438.6213,272.7738 Q439.2463,272.7738 439.84,272.5081 Q440.4338,272.2269 441.0588,271.6488 L441.0588,274.3675 Z " fill="#000000"/><text fill="#000000" font-family="Hiragino Sans GB" font-size="14" lengthAdjust="spacing" textLength="117.0928" x="452.09" y="273.5736">ConcreteProduct</text><line style="stroke:#181818;stroke-width:0.5;" x1="424.09" x2="571.1828" y1="284.7269" y2="284.7269"/><line style="stroke:#181818;stroke-width:0.5;" x1="424.09" x2="571.1828" y1="292.7269" y2="292.7269"/></g><g class="entity" data-entity="GMN7" data-source-line="11" data-uid="ent0008" id="entity_GMN7"><path d="M380.07,360.7269 L380.07,385.8597 A0,0 0 0 0 380.07,385.8597 L615.2084,385.8597 A0,0 0 0 0 615.2084,385.8597 L615.2084,370.7269 L605.2084,360.7269 L501.64,360.7269 L497.64,301.0969 L493.64,360.7269 L380.07,360.7269 A0,0 0 0 0 380.07,360.7269" fill="#FEFFDD" style="stroke:#181818;stroke-width:0.5;"/><path d="M605.2084,360.7269 L605.2084,370.7269 L615.2084,370.7269 L605.2084,360.7269" fill="#FEFFDD" style="stroke:#181818;stroke-width:0.5;"/><text fill="#000000" font-family="Hiragino Sans GB" font-size="13" lengthAdjust="spacing" textLength="214.1384" x="386.07" y="377.7938">&#20855;&#20307;&#30340;&#20135;&#21697;&#65292;&#23454;&#29616;&#20102; Product &#25509;&#21475;&#12290;</text></g><!--class Factory--><g class="entity" data-entity="Factory" data-source-line="13" data-uid="ent0010" id="entity_Factory"><rect fill="#F1F1F1" height="64.2969" rx="2.5" ry="2.5" style="stroke:#181818;stroke-width:0.5;" width="201.6084" x="77.83" y="128.4269"/><ellipse cx="148.1718" cy="144.4269" fill="#A9DCDF" rx="11" ry="11" style="stroke:#181818;stroke-width:1;"/><path d="M148.2812,139.7706 L147.1249,144.8488 L149.453,144.8488 L148.2812,139.7706 Z M146.7968,137.5363 L149.7812,137.5363 L153.1405,149.9269 L150.6874,149.9269 L149.9218,146.8644 L146.6405,146.8644 L145.8905,149.9269 L143.453,149.9269 L146.7968,137.5363 Z " fill="#000000"/><text fill="#000000" font-family="Hiragino Sans GB" font-size="14" font-style="italic" lengthAdjust="spacing" textLength="52.4248" x="168.6718" y="149.2736">Factory</text><line style="stroke:#181818;stroke-width:0.5;" x1="78.83" x2="278.4384" y1="160.4269" y2="160.4269"/><line style="stroke:#181818;stroke-width:0.5;" x1="78.83" x2="278.4384" y1="168.4269" y2="168.4269"/><ellipse cx="88.83" cy="182.0753" fill="#84BE84" rx="3" ry="3" style="stroke:#038048;stroke-width:1;"/><text fill="#000000" font-family="Hiragino Sans GB" font-size="14" font-style="italic" lengthAdjust="spacing" textLength="175.6084" x="97.83" y="185.422">factoryMethod() :Product</text></g><g class="entity" data-entity="GMN11" data-source-line="16" data-uid="ent0012" id="entity_GMN11"><path d="M6,43.2969 L6,68.4297 A0,0 0 0 0 6,68.4297 L173.75,68.4297 L178.33,128.2569 L181.75,68.4297 L349.2708,68.4297 A0,0 0 0 0 349.2708,68.4297 L349.2708,53.2969 L339.2708,43.2969 L6,43.2969 A0,0 0 0 0 6,43.2969" fill="#FEFFDD" style="stroke:#181818;stroke-width:0.5;"/><path d="M339.2708,43.2969 L339.2708,53.2969 L349.2708,53.2969 L339.2708,43.2969" fill="#FEFFDD" style="stroke:#181818;stroke-width:0.5;"/><text fill="#000000" font-family="Hiragino Sans GB" font-size="13" lengthAdjust="spacing" textLength="322.2708" x="12" y="60.3638">&#22768;&#26126;&#24037;&#21378;&#26041;&#27861;&#65292; &#35813;&#26041;&#27861;&#36820;&#22238;&#19968;&#20010; Product &#31867;&#22411;&#30340;&#23545;&#35937;&#12290;</text></g><!--class ConcreteFactory--><g class="entity" data-entity="ConcreteFactory" data-source-line="18" data-uid="ent0014" id="entity_ConcreteFactory"><rect fill="#F1F1F1" height="48" rx="2.5" ry="2.5" style="stroke:#181818;stroke-width:0.5;" width="147.8076" x="104.73" y="252.7269"/><ellipse cx="119.73" cy="268.7269" fill="#ADD1B2" rx="11" ry="11" style="stroke:#181818;stroke-width:1;"/><path d="M122.6988,274.3675 Q122.1206,274.6644 121.48,274.805 Q120.8394,274.9613 120.1363,274.9613 Q117.6363,274.9613 116.3081,273.3206 Q114.9956,271.6644 114.9956,268.5394 Q114.9956,265.4144 116.3081,263.7581 Q117.6363,262.1019 120.1363,262.1019 Q120.8394,262.1019 121.48,262.2581 Q122.1363,262.4144 122.6988,262.7113 L122.6988,265.43 Q122.0738,264.8519 121.48,264.5863 Q120.8863,264.305 120.2613,264.305 Q118.9175,264.305 118.23,265.3831 Q117.5425,266.4456 117.5425,268.5394 Q117.5425,270.6331 118.23,271.7113 Q118.9175,272.7738 120.2613,272.7738 Q120.8863,272.7738 121.48,272.5081 Q122.0738,272.2269 122.6988,271.6488 L122.6988,274.3675 Z " fill="#000000"/><text fill="#000000" font-family="Hiragino Sans GB" font-size="14" lengthAdjust="spacing" textLength="115.8076" x="133.73" y="273.5736">ConcreteFactory</text><line style="stroke:#181818;stroke-width:0.5;" x1="105.73" x2="251.5376" y1="284.7269" y2="284.7269"/><line style="stroke:#181818;stroke-width:0.5;" x1="105.73" x2="251.5376" y1="292.7269" y2="292.7269"/></g><g class="entity" data-entity="GMN15" data-source-line="20" data-uid="ent0016" id="entity_GMN15"><path d="M12.14,360.7269 L12.14,385.8597 A0,0 0 0 0 12.14,385.8597 L345.1338,385.8597 A0,0 0 0 0 345.1338,385.8597 L345.1338,370.7269 L335.1338,360.7269 L182.64,360.7269 L178.64,301.0969 L174.64,360.7269 L12.14,360.7269 A0,0 0 0 0 12.14,360.7269" fill="#FEFFDD" style="stroke:#181818;stroke-width:0.5;"/><path d="M335.1338,360.7269 L335.1338,370.7269 L345.1338,370.7269 L335.1338,360.7269" fill="#FEFFDD" style="stroke:#181818;stroke-width:0.5;"/><text fill="#000000" font-family="Hiragino Sans GB" font-size="13" lengthAdjust="spacing" textLength="311.9938" x="18.14" y="377.7938">&#37325;&#23450;&#20041;&#24037;&#21378;&#26041;&#27861;&#20197;&#36820;&#22238;&#19968;&#20010; ConcreteProduct &#23454;&#20363;&#12290;</text></g><!--reverse link Product to ConcreteProduct--><g class="link" data-entity-1="Product" data-entity-2="ConcreteProduct" data-source-line="22" data-uid="lnk18" id="link_Product_ConcreteProduct"><path codeLine="22" d="M497.64,202.9469 C497.64,222.6469 497.64,232.6869 497.64,252.3769" fill="none" id="Product-backto-ConcreteProduct" style="stroke:#181818;stroke-width:1;"/><polygon fill="none" points="497.64,184.9469,491.64,202.9469,503.64,202.9469,497.64,184.9469" style="stroke:#181818;stroke-width:1;"/></g><!--reverse link Factory to ConcreteFactory--><g class="link" data-entity-1="Factory" data-entity-2="ConcreteFactory" data-source-line="23" data-uid="lnk19" id="link_Factory_ConcreteFactory"><path codeLine="23" d="M178.64,211.0669 C178.64,229.8069 178.64,235.1969 178.64,252.2969" fill="none" id="Factory-backto-ConcreteFactory" style="stroke:#181818;stroke-width:1;"/><polygon fill="none" points="178.64,193.0669,172.64,211.0669,184.64,211.0669,178.64,193.0669" style="stroke:#181818;stroke-width:1;"/></g><!--link ConcreteFactory to ConcreteProduct--><g class="link" data-entity-1="ConcreteFactory" data-entity-2="ConcreteProduct" data-source-line="24" data-uid="lnk20" id="link_ConcreteFactory_ConcreteProduct"><path codeLine="24" d="M252.78,276.7269 C309.53,276.7269 360.28,276.7269 417.03,276.7269" fill="none" id="ConcreteFactory-to-ConcreteProduct" style="stroke:#181818;stroke-width:1;"/><polygon fill="#181818" points="423.03,276.7269,414.03,272.7269,418.03,276.7269,414.03,280.7269,423.03,276.7269" style="stroke:#181818;stroke-width:1;"/></g><!--SRC=[RP1DIm916CVlyocUOn5BTn4F1TQb2Fe4iphgakx8x7W84qnw4sizM146WiXITF253hvM7wQPrKvzXOPyoLsxFIypl____rX7Xfd63ASWIc8ua-HXQl9zd2AmQp0SDqmAXzYqO6SB8Mxm986W7f9THze5zxxlljwvptKvAWStzH12MBSumn4EaIIsB3XWD9fHNHRba4av0KxJ0P3DgkWNFOXYNbuzok5WN3sJhVwaKrU5QpkotFZC5n2QqhQf6M64anMgJZcdAGK-xugtYleg1a-oSlezkfRDsjXkYy75mieIrMSsh4hAZXKMO0EoysqEOjF57k496brRXy2CvGtLQBiFzd8e9G-JbZDj9X-tyh4cUddHUrbu6NU6ibPQPFudwfydNzIlovlLCugXuz7n7qnTGxoNVcNce-29fldVeRcgPpaR8hyrZHdn1DT2AvGV]--></g></svg>