<svg xmlns="http://www.w3.org/2000/svg" xmlns:xlink="http://www.w3.org/1999/xlink" contentStyleType="text/css" data-diagram-type="CLASS" height="531px" preserveAspectRatio="none" style="width:1062px;height:531px;background:#FFFFFF;" version="1.1" viewBox="0 0 1062 531" width="1062px" zoomAndPan="magnify"><defs/><g><!--cluster java--><g class="cluster" data-entity="java" data-source-line="16" data-uid="ent0020" id="cluster_java"><path d="M866.3,290 L900.1193,290 A3.75,3.75 0 0 1 902.6193,292.5 L909.6193,312.2969 L1053.3,312.2969 A2.5,2.5 0 0 1 1055.8,314.7969 L1055.8,453.5 A2.5,2.5 0 0 1 1053.3,456 L866.3,456 A2.5,2.5 0 0 1 863.8,453.5 L863.8,292.5 A2.5,2.5 0 0 1 866.3,290" fill="none" style="stroke:#000000;stroke-width:1.5;"/><line style="stroke:#000000;stroke-width:1.5;" x1="863.8" x2="909.6193" y1="312.2969" y2="312.2969"/><text fill="#000000" font-family="sans-serif" font-size="14" font-weight="bold" lengthAdjust="spacing" textLength="32.8193" x="867.8" y="304.9951">java</text></g><!--cluster io--><g class="cluster" data-entity="io" data-source-line="16" data-uid="ent0021" id="cluster_io"><path d="M890.3,333 L905.717,333 A3.75,3.75 0 0 1 908.217,335.5 L915.217,355.2969 L1029.3,355.2969 A2.5,2.5 0 0 1 1031.8,357.7969 L1031.8,429.5 A2.5,2.5 0 0 1 1029.3,432 L890.3,432 A2.5,2.5 0 0 1 887.8,429.5 L887.8,335.5 A2.5,2.5 0 0 1 890.3,333" fill="none" style="stroke:#000000;stroke-width:1.5;"/><line style="stroke:#000000;stroke-width:1.5;" x1="887.8" x2="915.217" y1="355.2969" y2="355.2969"/><text fill="#000000" font-family="sans-serif" font-size="14" font-weight="bold" lengthAdjust="spacing" textLength="14.417" x="891.8" y="347.9951">io</text></g><!--class Serializable--><g class="entity" data-entity="Serializable" data-source-line="16" data-uid="ent0019" id="entity_Serializable"><rect fill="#F1F1F1" height="48" rx="2.5" ry="2.5" style="stroke:#181818;stroke-width:0.5;" width="112.8213" x="903.39" y="368"/><ellipse cx="918.39" cy="384" fill="#B4A7E5" rx="11" ry="11" style="stroke:#181818;stroke-width:1;"/><path d="M914.3119,379.7656 L914.3119,377.6094 L921.7025,377.6094 L921.7025,379.7656 L919.2338,379.7656 L919.2338,387.8438 L921.7025,387.8438 L921.7025,390 L914.3119,390 L914.3119,387.8438 L916.7806,387.8438 L916.7806,379.7656 L914.3119,379.7656 Z " fill="#000000"/><text fill="#000000" font-family="sans-serif" font-size="14" font-style="italic" lengthAdjust="spacing" textLength="80.8213" x="932.39" y="388.8467">Serializable</text><line style="stroke:#181818;stroke-width:0.5;" x1="904.39" x2="1015.2113" y1="400" y2="400"/><line style="stroke:#181818;stroke-width:0.5;" x1="904.39" x2="1015.2113" y1="408" y2="408"/></g><!--class Iterable--><g class="entity" data-entity="Iterable" data-source-line="4" data-uid="ent0002" id="entity_Iterable"><rect fill="#F1F1F1" height="48" rx="2.5" ry="2.5" style="stroke:#181818;stroke-width:0.5;" width="97.5381" x="154.03" y="10"/><ellipse cx="169.03" cy="26" fill="#B4A7E5" rx="11" ry="11" style="stroke:#181818;stroke-width:1;"/><path d="M164.9519,21.7656 L164.9519,19.6094 L172.3425,19.6094 L172.3425,21.7656 L169.8738,21.7656 L169.8738,29.8438 L172.3425,29.8438 L172.3425,32 L164.9519,32 L164.9519,29.8438 L167.4206,29.8438 L167.4206,21.7656 L164.9519,21.7656 Z " fill="#000000"/><text fill="#000000" font-family="sans-serif" font-size="14" font-style="italic" lengthAdjust="spacing" textLength="53.9561" x="183.03" y="30.8467">Iterable</text><rect fill="#FFFFFF" height="15.9688" style="stroke:#181818;stroke-width:1;stroke-dasharray:2.0,2.0;" width="9.582" x="244.9861" y="7"/><text fill="#000000" font-family="sans-serif" font-size="12" font-style="italic" lengthAdjust="spacing" textLength="7.582" x="245.9861" y="19.1387">E</text><line style="stroke:#181818;stroke-width:0.5;" x1="155.03" x2="250.5681" y1="42" y2="42"/><line style="stroke:#181818;stroke-width:0.5;" x1="155.03" x2="250.5681" y1="50" y2="50"/></g><!--class Collection--><g class="entity" data-entity="Collection" data-source-line="6" data-uid="ent0003" id="entity_Collection"><rect fill="#F1F1F1" height="48" rx="2.5" ry="2.5" style="stroke:#181818;stroke-width:0.5;" width="112.8301" x="146.38" y="118"/><ellipse cx="161.38" cy="134" fill="#B4A7E5" rx="11" ry="11" style="stroke:#181818;stroke-width:1;"/><path d="M157.3019,129.7656 L157.3019,127.6094 L164.6925,127.6094 L164.6925,129.7656 L162.2238,129.7656 L162.2238,137.8438 L164.6925,137.8438 L164.6925,140 L157.3019,140 L157.3019,137.8438 L159.7706,137.8438 L159.7706,129.7656 L157.3019,129.7656 Z " fill="#000000"/><text fill="#000000" font-family="sans-serif" font-size="14" font-style="italic" lengthAdjust="spacing" textLength="69.248" x="175.38" y="138.8467">Collection</text><rect fill="#FFFFFF" height="15.9688" style="stroke:#181818;stroke-width:1;stroke-dasharray:2.0,2.0;" width="9.582" x="252.628" y="115"/><text fill="#000000" font-family="sans-serif" font-size="12" font-style="italic" lengthAdjust="spacing" textLength="7.582" x="253.628" y="127.1387">E</text><line style="stroke:#181818;stroke-width:0.5;" x1="147.38" x2="258.2101" y1="150" y2="150"/><line style="stroke:#181818;stroke-width:0.5;" x1="147.38" x2="258.2101" y1="158" y2="158"/></g><!--class AbstractCollection--><g class="entity" data-entity="AbstractCollection" data-source-line="8" data-uid="ent0005" id="entity_AbstractCollection"><rect fill="#F1F1F1" height="48" rx="2.5" ry="2.5" style="stroke:#181818;stroke-width:0.5;" width="171.5986" x="7" y="226"/><ellipse cx="22" cy="242" fill="#A9DCDF" rx="11" ry="11" style="stroke:#181818;stroke-width:1;"/><path d="M22.1094,237.3438 L20.9531,242.4219 L23.2813,242.4219 L22.1094,237.3438 Z M20.625,235.1094 L23.6094,235.1094 L26.9688,247.5 L24.5156,247.5 L23.75,244.4375 L20.4688,244.4375 L19.7188,247.5 L17.2813,247.5 L20.625,235.1094 Z " fill="#000000"/><text fill="#000000" font-family="sans-serif" font-size="14" font-style="italic" lengthAdjust="spacing" textLength="128.0166" x="36" y="246.8467">AbstractCollection</text><rect fill="#FFFFFF" height="15.9688" style="stroke:#181818;stroke-width:1;stroke-dasharray:2.0,2.0;" width="9.582" x="172.0166" y="223"/><text fill="#000000" font-family="sans-serif" font-size="12" font-style="italic" lengthAdjust="spacing" textLength="7.582" x="173.0166" y="235.1387">E</text><line style="stroke:#181818;stroke-width:0.5;" x1="8" x2="177.5986" y1="258" y2="258"/><line style="stroke:#181818;stroke-width:0.5;" x1="8" x2="177.5986" y1="266" y2="266"/></g><!--class List--><g class="entity" data-entity="List" data-source-line="10" data-uid="ent0007" id="entity_List"><rect fill="#F1F1F1" height="48" rx="2.5" ry="2.5" style="stroke:#181818;stroke-width:0.5;" width="68.0547" x="278.77" y="226"/><ellipse cx="293.77" cy="242" fill="#B4A7E5" rx="11" ry="11" style="stroke:#181818;stroke-width:1;"/><path d="M289.6919,237.7656 L289.6919,235.6094 L297.0825,235.6094 L297.0825,237.7656 L294.6138,237.7656 L294.6138,245.8438 L297.0825,245.8438 L297.0825,248 L289.6919,248 L289.6919,245.8438 L292.1606,245.8438 L292.1606,237.7656 L289.6919,237.7656 Z " fill="#000000"/><text fill="#000000" font-family="sans-serif" font-size="14" font-style="italic" lengthAdjust="spacing" textLength="24.4727" x="307.77" y="246.8467">List</text><rect fill="#FFFFFF" height="15.9688" style="stroke:#181818;stroke-width:1;stroke-dasharray:2.0,2.0;" width="9.582" x="340.2427" y="223"/><text fill="#000000" font-family="sans-serif" font-size="12" font-style="italic" lengthAdjust="spacing" textLength="7.582" x="341.2427" y="235.1387">E</text><line style="stroke:#181818;stroke-width:0.5;" x1="279.77" x2="345.8247" y1="258" y2="258"/><line style="stroke:#181818;stroke-width:0.5;" x1="279.77" x2="345.8247" y1="266" y2="266"/></g><!--class AbstractList--><g class="entity" data-entity="AbstractList" data-source-line="14" data-uid="ent0009" id="entity_AbstractList"><rect fill="#F1F1F1" height="48" rx="2.5" ry="2.5" style="stroke:#181818;stroke-width:0.5;" width="126.8232" x="35.39" y="368"/><ellipse cx="50.39" cy="384" fill="#A9DCDF" rx="11" ry="11" style="stroke:#181818;stroke-width:1;"/><path d="M50.4994,379.3438 L49.3431,384.4219 L51.6713,384.4219 L50.4994,379.3438 Z M49.015,377.1094 L51.9994,377.1094 L55.3588,389.5 L52.9056,389.5 L52.14,386.4375 L48.8588,386.4375 L48.1088,389.5 L45.6713,389.5 L49.015,377.1094 Z " fill="#000000"/><text fill="#000000" font-family="sans-serif" font-size="14" font-style="italic" lengthAdjust="spacing" textLength="83.2412" x="64.39" y="388.8467">AbstractList</text><rect fill="#FFFFFF" height="15.9688" style="stroke:#181818;stroke-width:1;stroke-dasharray:2.0,2.0;" width="9.582" x="155.6312" y="365"/><text fill="#000000" font-family="sans-serif" font-size="12" font-style="italic" lengthAdjust="spacing" textLength="7.582" x="156.6312" y="377.1387">E</text><line style="stroke:#181818;stroke-width:0.5;" x1="36.39" x2="161.2132" y1="400" y2="400"/><line style="stroke:#181818;stroke-width:0.5;" x1="36.39" x2="161.2132" y1="408" y2="408"/></g><!--class ArrayList--><g class="entity" data-entity="ArrayList" data-source-line="16" data-uid="ent0012" id="entity_ArrayList"><rect fill="#F1F1F1" height="48" rx="2.5" ry="2.5" style="stroke:#181818;stroke-width:0.5;" width="106.0078" x="479.8" y="476"/><ellipse cx="494.8" cy="492" fill="#ADD1B2" rx="11" ry="11" style="stroke:#181818;stroke-width:1;"/><path d="M497.7688,497.6406 Q497.1906,497.9375 496.55,498.0781 Q495.9094,498.2344 495.2063,498.2344 Q492.7063,498.2344 491.3781,496.5938 Q490.0656,494.9375 490.0656,491.8125 Q490.0656,488.6875 491.3781,487.0313 Q492.7063,485.375 495.2063,485.375 Q495.9094,485.375 496.55,485.5313 Q497.2063,485.6875 497.7688,485.9844 L497.7688,488.7031 Q497.1438,488.125 496.55,487.8594 Q495.9563,487.5781 495.3313,487.5781 Q493.9875,487.5781 493.3,488.6563 Q492.6125,489.7188 492.6125,491.8125 Q492.6125,493.9063 493.3,494.9844 Q493.9875,496.0469 495.3313,496.0469 Q495.9563,496.0469 496.55,495.7813 Q497.1438,495.5 497.7688,494.9219 L497.7688,497.6406 Z " fill="#000000"/><text fill="#000000" font-family="sans-serif" font-size="14" lengthAdjust="spacing" textLength="62.4258" x="508.8" y="496.8467">ArrayList</text><rect fill="#FFFFFF" height="15.9688" style="stroke:#181818;stroke-width:1;stroke-dasharray:2.0,2.0;" width="9.582" x="579.2258" y="473"/><text fill="#000000" font-family="sans-serif" font-size="12" font-style="italic" lengthAdjust="spacing" textLength="7.582" x="580.2258" y="485.1387">E</text><line style="stroke:#181818;stroke-width:0.5;" x1="480.8" x2="584.8078" y1="508" y2="508"/><line style="stroke:#181818;stroke-width:0.5;" x1="480.8" x2="584.8078" y1="516" y2="516"/></g><!--class RandomAccess--><g class="entity" data-entity="RandomAccess" data-source-line="16" data-uid="ent0015" id="entity_RandomAccess"><rect fill="#F1F1F1" height="48" rx="2.5" ry="2.5" style="stroke:#181818;stroke-width:0.5;" width="138.4424" x="463.58" y="368"/><ellipse cx="478.58" cy="384" fill="#B4A7E5" rx="11" ry="11" style="stroke:#181818;stroke-width:1;"/><path d="M474.5019,379.7656 L474.5019,377.6094 L481.8925,377.6094 L481.8925,379.7656 L479.4238,379.7656 L479.4238,387.8438 L481.8925,387.8438 L481.8925,390 L474.5019,390 L474.5019,387.8438 L476.9706,387.8438 L476.9706,379.7656 L474.5019,379.7656 Z " fill="#000000"/><text fill="#000000" font-family="sans-serif" font-size="14" font-style="italic" lengthAdjust="spacing" textLength="106.4424" x="492.58" y="388.8467">RandomAccess</text><line style="stroke:#181818;stroke-width:0.5;" x1="464.58" x2="601.0224" y1="400" y2="400"/><line style="stroke:#181818;stroke-width:0.5;" x1="464.58" x2="601.0224" y1="408" y2="408"/></g><!--class Cloneable--><g class="entity" data-entity="Cloneable" data-source-line="16" data-uid="ent0017" id="entity_Cloneable"><rect fill="#F1F1F1" height="48" rx="2.5" ry="2.5" style="stroke:#181818;stroke-width:0.5;" width="101.6855" x="701.96" y="368"/><ellipse cx="716.96" cy="384" fill="#B4A7E5" rx="11" ry="11" style="stroke:#181818;stroke-width:1;"/><path d="M712.8819,379.7656 L712.8819,377.6094 L720.2725,377.6094 L720.2725,379.7656 L717.8038,379.7656 L717.8038,387.8438 L720.2725,387.8438 L720.2725,390 L712.8819,390 L712.8819,387.8438 L715.3506,387.8438 L715.3506,379.7656 L712.8819,379.7656 Z " fill="#000000"/><text fill="#000000" font-family="sans-serif" font-size="14" font-style="italic" lengthAdjust="spacing" textLength="69.6855" x="730.96" y="388.8467">Cloneable</text><line style="stroke:#181818;stroke-width:0.5;" x1="702.96" x2="802.6455" y1="400" y2="400"/><line style="stroke:#181818;stroke-width:0.5;" x1="702.96" x2="802.6455" y1="408" y2="408"/></g><!--reverse link Iterable to Collection--><g class="link" data-entity-1="Iterable" data-entity-2="Collection" data-source-line="6" data-uid="lnk4" id="link_Iterable_Collection"><path d="M202.8,76.26 C202.8,93.94 202.8,100.13 202.8,117.79" fill="none" id="Iterable-backto-Collection" style="stroke:#181818;stroke-width:1;"/><polygon fill="none" points="202.8,58.26,196.8,76.26,208.8,76.26,202.8,58.26" style="stroke:#181818;stroke-width:1;"/></g><!--reverse link Collection to AbstractCollection--><g class="link" data-entity-1="Collection" data-entity-2="AbstractCollection" data-source-line="8" data-uid="lnk6" id="link_Collection_AbstractCollection"><path d="M165.701,178.7526 C147.361,196.4326 135.21,208.13 116.88,225.79" fill="none" id="Collection-backto-AbstractCollection" style="stroke:#181818;stroke-width:1;stroke-dasharray:7.0,7.0;"/><polygon fill="none" points="178.66,166.26,161.5368,174.433,169.8652,183.0723,178.66,166.26" style="stroke:#181818;stroke-width:1;"/></g><!--reverse link Collection to List--><g class="link" data-entity-1="Collection" data-entity-2="List" data-source-line="12" data-uid="lnk8" id="link_Collection_List"><path d="M239.899,178.7526 C258.239,196.4326 270.39,208.13 288.72,225.79" fill="none" id="Collection-backto-List" style="stroke:#181818;stroke-width:1;"/><polygon fill="none" points="226.94,166.26,235.7348,183.0723,244.0632,174.433,226.94,166.26" style="stroke:#181818;stroke-width:1;"/></g><!--reverse link AbstractCollection to AbstractList--><g class="link" data-entity-1="AbstractCollection" data-entity-2="AbstractList" data-source-line="14" data-uid="lnk10" id="link_AbstractCollection_AbstractList"><path d="M94.5747,292.4133 C95.6947,318.4133 96.7,342.12 97.81,367.96" fill="none" id="AbstractCollection-backto-AbstractList" style="stroke:#181818;stroke-width:1;"/><polygon fill="none" points="93.8,274.43,88.5802,292.6715,100.5691,292.1551,93.8,274.43" style="stroke:#181818;stroke-width:1;"/></g><!--reverse link List to AbstractList--><g class="link" data-entity-1="List" data-entity-2="AbstractList" data-source-line="14" data-uid="lnk11" id="link_List_AbstractList"><path d="M261.7349,269.069 C248.3149,274.219 249.85,274.39 236.8,282 C194.07,306.91 150.16,343.95 123.67,367.78" fill="none" id="List-backto-AbstractList" style="stroke:#181818;stroke-width:1;stroke-dasharray:7.0,7.0;"/><polygon fill="none" points="278.54,262.62,259.5853,263.4673,263.8846,274.6707,278.54,262.62" style="stroke:#181818;stroke-width:1;"/></g><!--reverse link AbstractList to ArrayList--><g class="link" data-entity-1="AbstractList" data-entity-2="ArrayList" data-source-line="16" data-uid="lnk13" id="link_AbstractList_ArrayList"><path d="M150.7841,425.6189 C177.7441,441.7189 200.47,452.9 236.8,464 C319.08,489.13 419.32,496.38 479.5,498.38" fill="none" id="AbstractList-backto-ArrayList" style="stroke:#181818;stroke-width:1;"/><polygon fill="none" points="135.33,416.39,147.7078,430.7702,153.8603,420.4675,135.33,416.39" style="stroke:#181818;stroke-width:1;"/></g><!--reverse link List to ArrayList--><g class="link" data-entity-1="List" data-entity-2="ArrayList" data-source-line="16" data-uid="lnk14" id="link_List_ArrayList"><path d="M321.1844,291.9459 C330.8644,335.7459 353.9,412.82 413.8,464 C432.05,479.6 456.98,488.25 479.31,493.04" fill="none" id="List-backto-ArrayList" style="stroke:#181818;stroke-width:1;stroke-dasharray:7.0,7.0;"/><polygon fill="none" points="317.3,274.37,315.3257,293.2407,327.043,290.6511,317.3,274.37" style="stroke:#181818;stroke-width:1;"/></g><!--reverse link RandomAccess to ArrayList--><g class="link" data-entity-1="RandomAccess" data-entity-2="ArrayList" data-source-line="16" data-uid="lnk16" id="link_RandomAccess_ArrayList"><path d="M532.8,434.26 C532.8,451.94 532.8,458.13 532.8,475.79" fill="none" id="RandomAccess-backto-ArrayList" style="stroke:#181818;stroke-width:1;stroke-dasharray:7.0,7.0;"/><polygon fill="none" points="532.8,416.26,526.8,434.26,538.8,434.26,532.8,416.26" style="stroke:#181818;stroke-width:1;"/></g><!--reverse link Cloneable to ArrayList--><g class="link" data-entity-1="Cloneable" data-entity-2="ArrayList" data-source-line="16" data-uid="lnk18" id="link_Cloneable_ArrayList"><path d="M710.6197,427.6278 C691.1697,442.9478 678.25,451.24 651.8,464 C631.14,473.96 607.08,481.69 586.01,487.33" fill="none" id="Cloneable-backto-ArrayList" style="stroke:#181818;stroke-width:1;stroke-dasharray:7.0,7.0;"/><polygon fill="none" points="724.76,416.49,706.9071,422.9143,714.3322,432.3412,724.76,416.49" style="stroke:#181818;stroke-width:1;"/></g><!--reverse link Serializable to ArrayList--><g class="link" data-entity-1="Serializable" data-entity-2="ArrayList" data-source-line="16" data-uid="lnk22" id="link_Serializable_ArrayList"><path d="M918.9952,427.548 C898.6852,443.828 883.35,453.23 853.8,464 C805.93,481.44 664.23,491.76 586.07,496.28" fill="none" id="Serializable-backto-ArrayList" style="stroke:#181818;stroke-width:1;stroke-dasharray:7.0,7.0;"/><polygon fill="none" points="933.04,416.29,915.2425,422.8664,922.7478,432.2296,933.04,416.29" style="stroke:#181818;stroke-width:1;"/></g><!--SRC=[TP312i8m38RlVOhSl8mnBvv46CE3u4cV8EiYrBNfQ8geJ-ygOzJ9RksNVFb3f3SyO407x3iI6c1RLMeZCmx8VSAxIYd3aS8DDS5fV61hQNyyvBZnrfAEnlDO07f6uaxcPgMmbHXGHz0MHQ2Ulh-QSOCbHnmbcvUdd8t4HV24viXSN0bTAl_Bv9kaRgMc2I7WQqrFV2aMS47klAkr9f426kkPqaKAkEC3I-FBAmM3rho_T_e0]--></g></svg>