<svg xmlns="http://www.w3.org/2000/svg" xmlns:xlink="http://www.w3.org/1999/xlink" contentStyleType="text/css" data-diagram-type="CLASS" height="534px" preserveAspectRatio="none" style="width:547px;height:534px;background:#FFFFFF;" version="1.1" viewBox="0 0 547 534" width="547px" zoomAndPan="magnify"><title>&lt;b&gt;AbstractSequentialList&lt;/b&gt;</title><defs/><g><text fill="#000000" font-family="sans-serif" font-size="14" font-weight="bold" lengthAdjust="spacing" textLength="180.7354" x="176.4244" y="22.9951">AbstractSequentialList</text><!--class Iterable--><g class="entity" data-entity="Iterable" data-source-line="6" data-uid="ent0002" id="entity_Iterable"><rect fill="#F1F1F1" height="48" rx="2.5" ry="2.5" style="stroke:#181818;stroke-width:0.5;" width="97.5381" x="264.03" y="47.2969"/><ellipse cx="279.03" cy="63.2969" fill="#B4A7E5" rx="11" ry="11" style="stroke:#181818;stroke-width:1;"/><path d="M274.9519,59.0625 L274.9519,56.9063 L282.3425,56.9063 L282.3425,59.0625 L279.8738,59.0625 L279.8738,67.1406 L282.3425,67.1406 L282.3425,69.2969 L274.9519,69.2969 L274.9519,67.1406 L277.4206,67.1406 L277.4206,59.0625 L274.9519,59.0625 Z " fill="#000000"/><text fill="#000000" font-family="sans-serif" font-size="14" font-style="italic" lengthAdjust="spacing" textLength="53.9561" x="293.03" y="68.1436">Iterable</text><rect fill="#FFFFFF" height="15.9688" style="stroke:#181818;stroke-width:1;stroke-dasharray:2.0,2.0;" width="9.582" x="354.9861" y="44.2969"/><text fill="#000000" font-family="sans-serif" font-size="12" font-style="italic" lengthAdjust="spacing" textLength="7.582" x="355.9861" y="56.4355">E</text><line style="stroke:#181818;stroke-width:0.5;" x1="265.03" x2="360.5681" y1="79.2969" y2="79.2969"/><line style="stroke:#181818;stroke-width:0.5;" x1="265.03" x2="360.5681" y1="87.2969" y2="87.2969"/></g><!--class Collection--><g class="entity" data-entity="Collection" data-source-line="8" data-uid="ent0003" id="entity_Collection"><rect fill="#F1F1F1" height="48" rx="2.5" ry="2.5" style="stroke:#181818;stroke-width:0.5;" width="112.8301" x="256.38" y="155.2969"/><ellipse cx="271.38" cy="171.2969" fill="#B4A7E5" rx="11" ry="11" style="stroke:#181818;stroke-width:1;"/><path d="M267.3019,167.0625 L267.3019,164.9063 L274.6925,164.9063 L274.6925,167.0625 L272.2238,167.0625 L272.2238,175.1406 L274.6925,175.1406 L274.6925,177.2969 L267.3019,177.2969 L267.3019,175.1406 L269.7706,175.1406 L269.7706,167.0625 L267.3019,167.0625 Z " fill="#000000"/><text fill="#000000" font-family="sans-serif" font-size="14" font-style="italic" lengthAdjust="spacing" textLength="69.248" x="285.38" y="176.1436">Collection</text><rect fill="#FFFFFF" height="15.9688" style="stroke:#181818;stroke-width:1;stroke-dasharray:2.0,2.0;" width="9.582" x="362.628" y="152.2969"/><text fill="#000000" font-family="sans-serif" font-size="12" font-style="italic" lengthAdjust="spacing" textLength="7.582" x="363.628" y="164.4355">E</text><line style="stroke:#181818;stroke-width:0.5;" x1="257.38" x2="368.2101" y1="187.2969" y2="187.2969"/><line style="stroke:#181818;stroke-width:0.5;" x1="257.38" x2="368.2101" y1="195.2969" y2="195.2969"/></g><!--class AbstractCollection--><g class="entity" data-entity="AbstractCollection" data-source-line="10" data-uid="ent0005" id="entity_AbstractCollection"><rect fill="#F1F1F1" height="48" rx="2.5" ry="2.5" style="stroke:#181818;stroke-width:0.5;" width="171.5986" x="7" y="263.2969"/><ellipse cx="22" cy="279.2969" fill="#A9DCDF" rx="11" ry="11" style="stroke:#181818;stroke-width:1;"/><path d="M22.1094,274.6406 L20.9531,279.7188 L23.2813,279.7188 L22.1094,274.6406 Z M20.625,272.4063 L23.6094,272.4063 L26.9688,284.7969 L24.5156,284.7969 L23.75,281.7344 L20.4688,281.7344 L19.7188,284.7969 L17.2813,284.7969 L20.625,272.4063 Z " fill="#000000"/><text fill="#000000" font-family="sans-serif" font-size="14" font-style="italic" lengthAdjust="spacing" textLength="128.0166" x="36" y="284.1436">AbstractCollection</text><rect fill="#FFFFFF" height="15.9688" style="stroke:#181818;stroke-width:1;stroke-dasharray:2.0,2.0;" width="9.582" x="172.0166" y="260.2969"/><text fill="#000000" font-family="sans-serif" font-size="12" font-style="italic" lengthAdjust="spacing" textLength="7.582" x="173.0166" y="272.4355">E</text><line style="stroke:#181818;stroke-width:0.5;" x1="8" x2="177.5986" y1="295.2969" y2="295.2969"/><line style="stroke:#181818;stroke-width:0.5;" x1="8" x2="177.5986" y1="303.2969" y2="303.2969"/></g><!--class List--><g class="entity" data-entity="List" data-source-line="12" data-uid="ent0007" id="entity_List"><rect fill="#F1F1F1" height="48" rx="2.5" ry="2.5" style="stroke:#181818;stroke-width:0.5;" width="68.0547" x="278.77" y="263.2969"/><ellipse cx="293.77" cy="279.2969" fill="#B4A7E5" rx="11" ry="11" style="stroke:#181818;stroke-width:1;"/><path d="M289.6919,275.0625 L289.6919,272.9063 L297.0825,272.9063 L297.0825,275.0625 L294.6138,275.0625 L294.6138,283.1406 L297.0825,283.1406 L297.0825,285.2969 L289.6919,285.2969 L289.6919,283.1406 L292.1606,283.1406 L292.1606,275.0625 L289.6919,275.0625 Z " fill="#000000"/><text fill="#000000" font-family="sans-serif" font-size="14" font-style="italic" lengthAdjust="spacing" textLength="24.4727" x="307.77" y="284.1436">List</text><rect fill="#FFFFFF" height="15.9688" style="stroke:#181818;stroke-width:1;stroke-dasharray:2.0,2.0;" width="9.582" x="340.2427" y="260.2969"/><text fill="#000000" font-family="sans-serif" font-size="12" font-style="italic" lengthAdjust="spacing" textLength="7.582" x="341.2427" y="272.4355">E</text><line style="stroke:#181818;stroke-width:0.5;" x1="279.77" x2="345.8247" y1="295.2969" y2="295.2969"/><line style="stroke:#181818;stroke-width:0.5;" x1="279.77" x2="345.8247" y1="303.2969" y2="303.2969"/></g><!--class Queue--><g class="entity" data-entity="Queue" data-source-line="14" data-uid="ent0009" id="entity_Queue"><rect fill="#F1F1F1" height="48" rx="2.5" ry="2.5" style="stroke:#181818;stroke-width:0.5;" width="89.5742" x="447.01" y="263.2969"/><ellipse cx="462.01" cy="279.2969" fill="#B4A7E5" rx="11" ry="11" style="stroke:#181818;stroke-width:1;"/><path d="M457.9319,275.0625 L457.9319,272.9063 L465.3225,272.9063 L465.3225,275.0625 L462.8538,275.0625 L462.8538,283.1406 L465.3225,283.1406 L465.3225,285.2969 L457.9319,285.2969 L457.9319,283.1406 L460.4006,283.1406 L460.4006,275.0625 L457.9319,275.0625 Z " fill="#000000"/><text fill="#000000" font-family="sans-serif" font-size="14" font-style="italic" lengthAdjust="spacing" textLength="45.9922" x="476.01" y="284.1436">Queue</text><rect fill="#FFFFFF" height="15.9688" style="stroke:#181818;stroke-width:1;stroke-dasharray:2.0,2.0;" width="9.582" x="530.0022" y="260.2969"/><text fill="#000000" font-family="sans-serif" font-size="12" font-style="italic" lengthAdjust="spacing" textLength="7.582" x="531.0022" y="272.4355">E</text><line style="stroke:#181818;stroke-width:0.5;" x1="448.01" x2="535.5842" y1="295.2969" y2="295.2969"/><line style="stroke:#181818;stroke-width:0.5;" x1="448.01" x2="535.5842" y1="303.2969" y2="303.2969"/></g><!--class Deque--><g class="entity" data-entity="Deque" data-source-line="16" data-uid="ent0011" id="entity_Deque"><rect fill="#F1F1F1" height="48" rx="2.5" ry="2.5" style="stroke:#181818;stroke-width:0.5;" width="89.3486" x="447.12" y="371.2969"/><ellipse cx="462.12" cy="387.2969" fill="#B4A7E5" rx="11" ry="11" style="stroke:#181818;stroke-width:1;"/><path d="M458.0419,383.0625 L458.0419,380.9063 L465.4325,380.9063 L465.4325,383.0625 L462.9638,383.0625 L462.9638,391.1406 L465.4325,391.1406 L465.4325,393.2969 L458.0419,393.2969 L458.0419,391.1406 L460.5106,391.1406 L460.5106,383.0625 L458.0419,383.0625 Z " fill="#000000"/><text fill="#000000" font-family="sans-serif" font-size="14" font-style="italic" lengthAdjust="spacing" textLength="45.7666" x="476.12" y="392.1436">Deque</text><rect fill="#FFFFFF" height="15.9688" style="stroke:#181818;stroke-width:1;stroke-dasharray:2.0,2.0;" width="9.582" x="529.8866" y="368.2969"/><text fill="#000000" font-family="sans-serif" font-size="12" font-style="italic" lengthAdjust="spacing" textLength="7.582" x="530.8866" y="380.4355">E</text><line style="stroke:#181818;stroke-width:0.5;" x1="448.12" x2="535.4686" y1="403.2969" y2="403.2969"/><line style="stroke:#181818;stroke-width:0.5;" x1="448.12" x2="535.4686" y1="411.2969" y2="411.2969"/></g><!--class AbstractList--><g class="entity" data-entity="AbstractList" data-source-line="18" data-uid="ent0013" id="entity_AbstractList"><rect fill="#F1F1F1" height="48" rx="2.5" ry="2.5" style="stroke:#181818;stroke-width:0.5;" width="126.8232" x="125.39" y="371.2969"/><ellipse cx="140.39" cy="387.2969" fill="#A9DCDF" rx="11" ry="11" style="stroke:#181818;stroke-width:1;"/><path d="M140.4994,382.6406 L139.3431,387.7188 L141.6713,387.7188 L140.4994,382.6406 Z M139.015,380.4063 L141.9994,380.4063 L145.3588,392.7969 L142.9056,392.7969 L142.14,389.7344 L138.8588,389.7344 L138.1088,392.7969 L135.6713,392.7969 L139.015,380.4063 Z " fill="#000000"/><text fill="#000000" font-family="sans-serif" font-size="14" font-style="italic" lengthAdjust="spacing" textLength="83.2412" x="154.39" y="392.1436">AbstractList</text><rect fill="#FFFFFF" height="15.9688" style="stroke:#181818;stroke-width:1;stroke-dasharray:2.0,2.0;" width="9.582" x="245.6312" y="368.2969"/><text fill="#000000" font-family="sans-serif" font-size="12" font-style="italic" lengthAdjust="spacing" textLength="7.582" x="246.6312" y="380.4355">E</text><line style="stroke:#181818;stroke-width:0.5;" x1="126.39" x2="251.2132" y1="403.2969" y2="403.2969"/><line style="stroke:#181818;stroke-width:0.5;" x1="126.39" x2="251.2132" y1="411.2969" y2="411.2969"/></g><!--class AbstractSequentialList--><g class="entity" data-entity="AbstractSequentialList" data-source-line="20" data-uid="ent0016" id="entity_AbstractSequentialList"><rect fill="#F1F1F1" height="48" rx="2.5" ry="2.5" style="stroke:#181818;stroke-width:0.5;" width="201.417" x="88.09" y="479.2969"/><ellipse cx="103.09" cy="495.2969" fill="#A9DCDF" rx="11" ry="11" style="stroke:#181818;stroke-width:1;"/><path d="M103.1994,490.6406 L102.0431,495.7188 L104.3713,495.7188 L103.1994,490.6406 Z M101.715,488.4063 L104.6994,488.4063 L108.0588,500.7969 L105.6056,500.7969 L104.84,497.7344 L101.5588,497.7344 L100.8088,500.7969 L98.3713,500.7969 L101.715,488.4063 Z " fill="#000000"/><text fill="#000000" font-family="sans-serif" font-size="14" font-style="italic" lengthAdjust="spacing" textLength="157.835" x="117.09" y="500.1436">AbstractSequentialList</text><rect fill="#FFFFFF" height="15.9688" style="stroke:#181818;stroke-width:1;stroke-dasharray:2.0,2.0;" width="9.582" x="282.925" y="476.2969"/><text fill="#000000" font-family="sans-serif" font-size="12" font-style="italic" lengthAdjust="spacing" textLength="7.582" x="283.925" y="488.4355">E</text><line style="stroke:#181818;stroke-width:0.5;" x1="89.09" x2="288.507" y1="511.2969" y2="511.2969"/><line style="stroke:#181818;stroke-width:0.5;" x1="89.09" x2="288.507" y1="519.2969" y2="519.2969"/></g><!--reverse link Iterable to Collection--><g class="link" data-entity-1="Iterable" data-entity-2="Collection" data-source-line="8" data-uid="lnk4" id="link_Iterable_Collection"><path d="M312.8,113.5569 C312.8,131.2369 312.8,137.4269 312.8,155.0869" fill="none" id="Iterable-backto-Collection" style="stroke:#181818;stroke-width:1;"/><polygon fill="none" points="312.8,95.5569,306.8,113.5569,318.8,113.5569,312.8,95.5569" style="stroke:#181818;stroke-width:1;"/></g><!--reverse link Collection to AbstractCollection--><g class="link" data-entity-1="Collection" data-entity-2="AbstractCollection" data-source-line="10" data-uid="lnk6" id="link_Collection_AbstractCollection"><path d="M248.0341,211.5 C211.4641,229.12 177.77,245.3569 141.23,262.9669" fill="none" id="Collection-backto-AbstractCollection" style="stroke:#181818;stroke-width:1;stroke-dasharray:7.0,7.0;"/><polygon fill="none" points="264.25,203.6869,245.4297,206.0947,250.6384,216.9053,264.25,203.6869" style="stroke:#181818;stroke-width:1;"/></g><!--reverse link Collection to List--><g class="link" data-entity-1="Collection" data-entity-2="List" data-source-line="12" data-uid="lnk8" id="link_Collection_List"><path d="M312.8,221.5569 C312.8,239.2369 312.8,245.4269 312.8,263.0869" fill="none" id="Collection-backto-List" style="stroke:#181818;stroke-width:1;"/><polygon fill="none" points="312.8,203.5569,306.8,221.5569,318.8,221.5569,312.8,203.5569" style="stroke:#181818;stroke-width:1;"/></g><!--reverse link Collection to Queue--><g class="link" data-entity-1="Collection" data-entity-2="Queue" data-source-line="14" data-uid="lnk10" id="link_Collection_Queue"><path d="M367.5684,212.728 C397.3084,230.338 422.5,245.2669 452.3,262.9069" fill="none" id="Collection-backto-Queue" style="stroke:#181818;stroke-width:1;"/><polygon fill="none" points="352.08,203.5569,364.5113,217.8908,370.6254,207.5652,352.08,203.5569" style="stroke:#181818;stroke-width:1;"/></g><!--reverse link Queue to Deque--><g class="link" data-entity-1="Queue" data-entity-2="Deque" data-source-line="16" data-uid="lnk12" id="link_Queue_Deque"><path d="M491.8,329.5569 C491.8,347.2369 491.8,353.4269 491.8,371.0869" fill="none" id="Queue-backto-Deque" style="stroke:#181818;stroke-width:1;"/><polygon fill="none" points="491.8,311.5569,485.8,329.5569,497.8,329.5569,491.8,311.5569" style="stroke:#181818;stroke-width:1;"/></g><!--reverse link AbstractCollection to AbstractList--><g class="link" data-entity-1="AbstractCollection" data-entity-2="AbstractList" data-source-line="18" data-uid="lnk14" id="link_AbstractCollection_AbstractList"><path d="M125.948,324.9031 C141.948,342.5831 151.79,353.4269 167.78,371.0869" fill="none" id="AbstractCollection-backto-AbstractList" style="stroke:#181818;stroke-width:1;"/><polygon fill="none" points="113.87,311.5569,121.4993,328.9291,130.3968,320.8771,113.87,311.5569" style="stroke:#181818;stroke-width:1;"/></g><!--reverse link List to AbstractList--><g class="link" data-entity-1="List" data-entity-2="AbstractList" data-source-line="18" data-uid="lnk15" id="link_List_AbstractList"><path d="M271.9084,323.2537 C251.2284,340.9337 236.61,353.4269 215.95,371.0869" fill="none" id="List-backto-AbstractList" style="stroke:#181818;stroke-width:1;stroke-dasharray:7.0,7.0;"/><polygon fill="none" points="285.59,311.5569,268.0095,318.6932,275.8074,327.8142,285.59,311.5569" style="stroke:#181818;stroke-width:1;"/></g><!--reverse link AbstractList to AbstractSequentialList--><g class="link" data-entity-1="AbstractList" data-entity-2="AbstractSequentialList" data-source-line="20" data-uid="lnk17" id="link_AbstractList_AbstractSequentialList"><path d="M188.8,437.5569 C188.8,455.2369 188.8,461.4269 188.8,479.0869" fill="none" id="AbstractList-backto-AbstractSequentialList" style="stroke:#181818;stroke-width:1;"/><polygon fill="none" points="188.8,419.5569,182.8,437.5569,194.8,437.5569,188.8,419.5569" style="stroke:#181818;stroke-width:1;"/></g><!--SRC=[XL3D2i8m3BxtANhpwBnuAWDH3u8NyGdIBa9Pbyqc0n_VRUZeveQtyENxIxZqr424IbDT86EZTrccDZp24QZiuNscb7W9g8tD3vObWfCxFbiayH2kdiLiRQwK9y7u08VwqWrW0vhp13xM8Q0JNrEtqFWIf897ibBmCTSk0BF-Parblce2Lbqs9tvfob0eyLzctLfiyJ_jrD-PqWRTQjLvzky9QV-UlMer-_22wI1_0m00]--></g></svg>