<svg xmlns="http://www.w3.org/2000/svg" xmlns:xlink="http://www.w3.org/1999/xlink" contentStyleType="text/css" data-diagram-type="CLASS" height="676px" preserveAspectRatio="none" style="width:707px;height:676px;background:#FFFFFF;" version="1.1" viewBox="0 0 707 676" width="707px" zoomAndPan="magnify"><title>&lt;b&gt;Stack&lt;/b&gt;</title><defs/><g><text fill="#000000" font-family="Hiragino Sans GB" font-size="14" font-weight="bold" lengthAdjust="spacing" textLength="43.832" x="324.599" y="22.9951">Stack</text><!--cluster java--><g class="cluster" data-entity="java" data-source-line="16" data-uid="ent0019" id="cluster_java"><path d="M510.53,327.2969 L544.3493,327.2969 A3.75,3.75 0 0 1 546.8493,329.7969 L553.8493,349.5938 L697.53,349.5938 A2.5,2.5 0 0 1 700.03,352.0938 L700.03,490.7969 A2.5,2.5 0 0 1 697.53,493.2969 L510.53,493.2969 A2.5,2.5 0 0 1 508.03,490.7969 L508.03,329.7969 A2.5,2.5 0 0 1 510.53,327.2969" fill="none" style="stroke:#000000;stroke-width:1.5;"/><line style="stroke:#000000;stroke-width:1.5;" x1="508.03" x2="553.8493" y1="349.5938" y2="349.5938"/><text fill="#000000" font-family="Hiragino Sans GB" font-size="14" font-weight="bold" lengthAdjust="spacing" textLength="32.8193" x="512.03" y="342.292">java</text></g><!--cluster io--><g class="cluster" data-entity="io" data-source-line="16" data-uid="ent0020" id="cluster_io"><path d="M534.53,370.2969 L549.947,370.2969 A3.75,3.75 0 0 1 552.447,372.7969 L559.447,392.5938 L673.53,392.5938 A2.5,2.5 0 0 1 676.03,395.0938 L676.03,466.7969 A2.5,2.5 0 0 1 673.53,469.2969 L534.53,469.2969 A2.5,2.5 0 0 1 532.03,466.7969 L532.03,372.7969 A2.5,2.5 0 0 1 534.53,370.2969" fill="none" style="stroke:#000000;stroke-width:1.5;"/><line style="stroke:#000000;stroke-width:1.5;" x1="532.03" x2="559.447" y1="392.5938" y2="392.5938"/><text fill="#000000" font-family="Hiragino Sans GB" font-size="14" font-weight="bold" lengthAdjust="spacing" textLength="14.417" x="536.03" y="385.292">io</text></g><!--class Serializable--><g class="entity" data-entity="Serializable" data-source-line="16" data-uid="ent0018" id="entity_Serializable"><rect fill="#F1F1F1" height="48" rx="2.5" ry="2.5" style="stroke:#181818;stroke-width:0.5;" width="112.8213" x="547.62" y="405.2969"/><ellipse cx="562.62" cy="421.2969" fill="#B4A7E5" rx="11" ry="11" style="stroke:#181818;stroke-width:1;"/><path d="M558.5419,417.0625 L558.5419,414.9063 L565.9325,414.9063 L565.9325,417.0625 L563.4638,417.0625 L563.4638,425.1406 L565.9325,425.1406 L565.9325,427.2969 L558.5419,427.2969 L558.5419,425.1406 L561.0106,425.1406 L561.0106,417.0625 L558.5419,417.0625 Z " fill="#000000"/><text fill="#000000" font-family="Hiragino Sans GB" font-size="14" font-style="italic" lengthAdjust="spacing" textLength="80.8213" x="576.62" y="426.1436">Serializable</text><line style="stroke:#181818;stroke-width:0.5;" x1="548.62" x2="659.4413" y1="437.2969" y2="437.2969"/><line style="stroke:#181818;stroke-width:0.5;" x1="548.62" x2="659.4413" y1="445.2969" y2="445.2969"/></g><!--class Iterable--><g class="entity" data-entity="Iterable" data-source-line="6" data-uid="ent0002" id="entity_Iterable"><rect fill="#F1F1F1" height="48" rx="2.5" ry="2.5" style="stroke:#181818;stroke-width:0.5;" width="97.5381" x="69.26" y="47.2969"/><ellipse cx="84.26" cy="63.2969" fill="#B4A7E5" rx="11" ry="11" style="stroke:#181818;stroke-width:1;"/><path d="M80.1819,59.0625 L80.1819,56.9063 L87.5725,56.9063 L87.5725,59.0625 L85.1037,59.0625 L85.1037,67.1406 L87.5725,67.1406 L87.5725,69.2969 L80.1819,69.2969 L80.1819,67.1406 L82.6506,67.1406 L82.6506,59.0625 L80.1819,59.0625 Z " fill="#000000"/><text fill="#000000" font-family="Hiragino Sans GB" font-size="14" font-style="italic" lengthAdjust="spacing" textLength="53.9561" x="98.26" y="68.1436">Iterable</text><rect fill="#FFFFFF" height="15.9688" style="stroke:#181818;stroke-width:1;stroke-dasharray:2.0,2.0;" width="9.582" x="160.2161" y="44.2969"/><text fill="#000000" font-family="Hiragino Sans GB" font-size="12" font-style="italic" lengthAdjust="spacing" textLength="7.582" x="161.2161" y="56.4355">E</text><line style="stroke:#181818;stroke-width:0.5;" x1="70.26" x2="165.7981" y1="79.2969" y2="79.2969"/><line style="stroke:#181818;stroke-width:0.5;" x1="70.26" x2="165.7981" y1="87.2969" y2="87.2969"/></g><!--class Collection--><g class="entity" data-entity="Collection" data-source-line="8" data-uid="ent0003" id="entity_Collection"><rect fill="#F1F1F1" height="48" rx="2.5" ry="2.5" style="stroke:#181818;stroke-width:0.5;" width="112.8301" x="61.61" y="155.2969"/><ellipse cx="76.61" cy="171.2969" fill="#B4A7E5" rx="11" ry="11" style="stroke:#181818;stroke-width:1;"/><path d="M72.5319,167.0625 L72.5319,164.9063 L79.9225,164.9063 L79.9225,167.0625 L77.4538,167.0625 L77.4538,175.1406 L79.9225,175.1406 L79.9225,177.2969 L72.5319,177.2969 L72.5319,175.1406 L75.0006,175.1406 L75.0006,167.0625 L72.5319,167.0625 Z " fill="#000000"/><text fill="#000000" font-family="Hiragino Sans GB" font-size="14" font-style="italic" lengthAdjust="spacing" textLength="69.248" x="90.61" y="176.1436">Collection</text><rect fill="#FFFFFF" height="15.9688" style="stroke:#181818;stroke-width:1;stroke-dasharray:2.0,2.0;" width="9.582" x="167.858" y="152.2969"/><text fill="#000000" font-family="Hiragino Sans GB" font-size="12" font-style="italic" lengthAdjust="spacing" textLength="7.582" x="168.858" y="164.4355">E</text><line style="stroke:#181818;stroke-width:0.5;" x1="62.61" x2="173.4401" y1="187.2969" y2="187.2969"/><line style="stroke:#181818;stroke-width:0.5;" x1="62.61" x2="173.4401" y1="195.2969" y2="195.2969"/></g><!--class List--><g class="entity" data-entity="List" data-source-line="10" data-uid="ent0005" id="entity_List"><rect fill="#F1F1F1" height="48" rx="2.5" ry="2.5" style="stroke:#181818;stroke-width:0.5;" width="68.0547" x="7" y="263.2969"/><ellipse cx="22" cy="279.2969" fill="#B4A7E5" rx="11" ry="11" style="stroke:#181818;stroke-width:1;"/><path d="M17.9219,275.0625 L17.9219,272.9063 L25.3125,272.9063 L25.3125,275.0625 L22.8438,275.0625 L22.8438,283.1406 L25.3125,283.1406 L25.3125,285.2969 L17.9219,285.2969 L17.9219,283.1406 L20.3906,283.1406 L20.3906,275.0625 L17.9219,275.0625 Z " fill="#000000"/><text fill="#000000" font-family="Hiragino Sans GB" font-size="14" font-style="italic" lengthAdjust="spacing" textLength="24.4727" x="36" y="284.1436">List</text><rect fill="#FFFFFF" height="15.9688" style="stroke:#181818;stroke-width:1;stroke-dasharray:2.0,2.0;" width="9.582" x="68.4727" y="260.2969"/><text fill="#000000" font-family="Hiragino Sans GB" font-size="12" font-style="italic" lengthAdjust="spacing" textLength="7.582" x="69.4727" y="272.4355">E</text><line style="stroke:#181818;stroke-width:0.5;" x1="8" x2="74.0547" y1="295.2969" y2="295.2969"/><line style="stroke:#181818;stroke-width:0.5;" x1="8" x2="74.0547" y1="303.2969" y2="303.2969"/></g><!--class AbstractCollection--><g class="entity" data-entity="AbstractCollection" data-source-line="12" data-uid="ent0007" id="entity_AbstractCollection"><rect fill="#F1F1F1" height="48" rx="2.5" ry="2.5" style="stroke:#181818;stroke-width:0.5;" width="171.5986" x="110.23" y="263.2969"/><ellipse cx="125.23" cy="279.2969" fill="#A9DCDF" rx="11" ry="11" style="stroke:#181818;stroke-width:1;"/><path d="M125.3394,274.6406 L124.1831,279.7188 L126.5113,279.7188 L125.3394,274.6406 Z M123.855,272.4063 L126.8394,272.4063 L130.1988,284.7969 L127.7456,284.7969 L126.98,281.7344 L123.6988,281.7344 L122.9488,284.7969 L120.5113,284.7969 L123.855,272.4063 Z " fill="#000000"/><text fill="#000000" font-family="Hiragino Sans GB" font-size="14" font-style="italic" lengthAdjust="spacing" textLength="128.0166" x="139.23" y="284.1436">AbstractCollection</text><rect fill="#FFFFFF" height="15.9688" style="stroke:#181818;stroke-width:1;stroke-dasharray:2.0,2.0;" width="9.582" x="275.2466" y="260.2969"/><text fill="#000000" font-family="Hiragino Sans GB" font-size="12" font-style="italic" lengthAdjust="spacing" textLength="7.582" x="276.2466" y="272.4355">E</text><line style="stroke:#181818;stroke-width:0.5;" x1="111.23" x2="280.8286" y1="295.2969" y2="295.2969"/><line style="stroke:#181818;stroke-width:0.5;" x1="111.23" x2="280.8286" y1="303.2969" y2="303.2969"/></g><!--class AbstractList--><g class="entity" data-entity="AbstractList" data-source-line="14" data-uid="ent0009" id="entity_AbstractList"><rect fill="#F1F1F1" height="48" rx="2.5" ry="2.5" style="stroke:#181818;stroke-width:0.5;" width="126.8232" x="54.62" y="405.2969"/><ellipse cx="69.62" cy="421.2969" fill="#A9DCDF" rx="11" ry="11" style="stroke:#181818;stroke-width:1;"/><path d="M69.7294,416.6406 L68.5731,421.7188 L70.9013,421.7188 L69.7294,416.6406 Z M68.245,414.4063 L71.2294,414.4063 L74.5888,426.7969 L72.1356,426.7969 L71.37,423.7344 L68.0888,423.7344 L67.3388,426.7969 L64.9013,426.7969 L68.245,414.4063 Z " fill="#000000"/><text fill="#000000" font-family="Hiragino Sans GB" font-size="14" font-style="italic" lengthAdjust="spacing" textLength="83.2412" x="83.62" y="426.1436">AbstractList</text><rect fill="#FFFFFF" height="15.9688" style="stroke:#181818;stroke-width:1;stroke-dasharray:2.0,2.0;" width="9.582" x="174.8612" y="402.2969"/><text fill="#000000" font-family="Hiragino Sans GB" font-size="12" font-style="italic" lengthAdjust="spacing" textLength="7.582" x="175.8612" y="414.4355">E</text><line style="stroke:#181818;stroke-width:0.5;" x1="55.62" x2="180.4432" y1="437.2969" y2="437.2969"/><line style="stroke:#181818;stroke-width:0.5;" x1="55.62" x2="180.4432" y1="445.2969" y2="445.2969"/></g><!--class Vector--><g class="entity" data-entity="Vector" data-source-line="16" data-uid="ent0012" id="entity_Vector"><rect fill="#F1F1F1" height="48" rx="2.5" ry="2.5" style="stroke:#181818;stroke-width:0.5;" width="89.2803" x="318.39" y="513.2969"/><ellipse cx="333.39" cy="529.2969" fill="#ADD1B2" rx="11" ry="11" style="stroke:#181818;stroke-width:1;"/><path d="M336.3588,534.9375 Q335.7806,535.2344 335.14,535.375 Q334.4994,535.5313 333.7963,535.5313 Q331.2963,535.5313 329.9681,533.8906 Q328.6556,532.2344 328.6556,529.1094 Q328.6556,525.9844 329.9681,524.3281 Q331.2963,522.6719 333.7963,522.6719 Q334.4994,522.6719 335.14,522.8281 Q335.7963,522.9844 336.3588,523.2813 L336.3588,526 Q335.7338,525.4219 335.14,525.1563 Q334.5463,524.875 333.9213,524.875 Q332.5775,524.875 331.89,525.9531 Q331.2025,527.0156 331.2025,529.1094 Q331.2025,531.2031 331.89,532.2813 Q332.5775,533.3438 333.9213,533.3438 Q334.5463,533.3438 335.14,533.0781 Q335.7338,532.7969 336.3588,532.2188 L336.3588,534.9375 Z " fill="#000000"/><text fill="#000000" font-family="Hiragino Sans GB" font-size="14" lengthAdjust="spacing" textLength="45.6982" x="347.39" y="534.1436">Vector</text><rect fill="#FFFFFF" height="15.9688" style="stroke:#181818;stroke-width:1;stroke-dasharray:2.0,2.0;" width="9.582" x="401.0882" y="510.2969"/><text fill="#000000" font-family="Hiragino Sans GB" font-size="12" font-style="italic" lengthAdjust="spacing" textLength="7.582" x="402.0882" y="522.4355">E</text><line style="stroke:#181818;stroke-width:0.5;" x1="319.39" x2="406.6703" y1="545.2969" y2="545.2969"/><line style="stroke:#181818;stroke-width:0.5;" x1="319.39" x2="406.6703" y1="553.2969" y2="553.2969"/></g><!--class RandomAccess--><g class="entity" data-entity="RandomAccess" data-source-line="16" data-uid="ent0014" id="entity_RandomAccess"><rect fill="#F1F1F1" height="48" rx="2.5" ry="2.5" style="stroke:#181818;stroke-width:0.5;" width="138.4424" x="216.81" y="405.2969"/><ellipse cx="231.81" cy="421.2969" fill="#B4A7E5" rx="11" ry="11" style="stroke:#181818;stroke-width:1;"/><path d="M227.7319,417.0625 L227.7319,414.9063 L235.1225,414.9063 L235.1225,417.0625 L232.6538,417.0625 L232.6538,425.1406 L235.1225,425.1406 L235.1225,427.2969 L227.7319,427.2969 L227.7319,425.1406 L230.2006,425.1406 L230.2006,417.0625 L227.7319,417.0625 Z " fill="#000000"/><text fill="#000000" font-family="Hiragino Sans GB" font-size="14" font-style="italic" lengthAdjust="spacing" textLength="106.4424" x="245.81" y="426.1436">RandomAccess</text><line style="stroke:#181818;stroke-width:0.5;" x1="217.81" x2="354.2524" y1="437.2969" y2="437.2969"/><line style="stroke:#181818;stroke-width:0.5;" x1="217.81" x2="354.2524" y1="445.2969" y2="445.2969"/></g><!--class Cloneable--><g class="entity" data-entity="Cloneable" data-source-line="16" data-uid="ent0016" id="entity_Cloneable"><rect fill="#F1F1F1" height="48" rx="2.5" ry="2.5" style="stroke:#181818;stroke-width:0.5;" width="101.6855" x="390.18" y="405.2969"/><ellipse cx="405.18" cy="421.2969" fill="#B4A7E5" rx="11" ry="11" style="stroke:#181818;stroke-width:1;"/><path d="M401.1019,417.0625 L401.1019,414.9063 L408.4925,414.9063 L408.4925,417.0625 L406.0238,417.0625 L406.0238,425.1406 L408.4925,425.1406 L408.4925,427.2969 L401.1019,427.2969 L401.1019,425.1406 L403.5706,425.1406 L403.5706,417.0625 L401.1019,417.0625 Z " fill="#000000"/><text fill="#000000" font-family="Hiragino Sans GB" font-size="14" font-style="italic" lengthAdjust="spacing" textLength="69.6855" x="419.18" y="426.1436">Cloneable</text><line style="stroke:#181818;stroke-width:0.5;" x1="391.18" x2="490.8655" y1="437.2969" y2="437.2969"/><line style="stroke:#181818;stroke-width:0.5;" x1="391.18" x2="490.8655" y1="445.2969" y2="445.2969"/></g><!--class Stack--><g class="entity" data-entity="Stack" data-source-line="18" data-uid="ent0022" id="entity_Stack"><rect fill="#F1F1F1" height="48" rx="2.5" ry="2.5" style="stroke:#181818;stroke-width:0.5;" width="82.3418" x="321.86" y="621.2969"/><ellipse cx="336.86" cy="637.2969" fill="#ADD1B2" rx="11" ry="11" style="stroke:#181818;stroke-width:1;"/><path d="M339.8288,642.9375 Q339.2506,643.2344 338.61,643.375 Q337.9694,643.5313 337.2663,643.5313 Q334.7663,643.5313 333.4381,641.8906 Q332.1256,640.2344 332.1256,637.1094 Q332.1256,633.9844 333.4381,632.3281 Q334.7663,630.6719 337.2663,630.6719 Q337.9694,630.6719 338.61,630.8281 Q339.2663,630.9844 339.8288,631.2813 L339.8288,634 Q339.2038,633.4219 338.61,633.1563 Q338.0163,632.875 337.3913,632.875 Q336.0475,632.875 335.36,633.9531 Q334.6725,635.0156 334.6725,637.1094 Q334.6725,639.2031 335.36,640.2813 Q336.0475,641.3438 337.3913,641.3438 Q338.0163,641.3438 338.61,641.0781 Q339.2038,640.7969 339.8288,640.2188 L339.8288,642.9375 Z " fill="#000000"/><text fill="#000000" font-family="Hiragino Sans GB" font-size="14" lengthAdjust="spacing" textLength="38.7598" x="350.86" y="642.1436">Stack</text><rect fill="#FFFFFF" height="15.9688" style="stroke:#181818;stroke-width:1;stroke-dasharray:2.0,2.0;" width="9.582" x="397.6198" y="618.2969"/><text fill="#000000" font-family="Hiragino Sans GB" font-size="12" font-style="italic" lengthAdjust="spacing" textLength="7.582" x="398.6198" y="630.4355">E</text><line style="stroke:#181818;stroke-width:0.5;" x1="322.86" x2="403.2018" y1="653.2969" y2="653.2969"/><line style="stroke:#181818;stroke-width:0.5;" x1="322.86" x2="403.2018" y1="661.2969" y2="661.2969"/></g><!--reverse link Iterable to Collection--><g class="link" data-entity-1="Iterable" data-entity-2="Collection" data-source-line="8" data-uid="lnk4" id="link_Iterable_Collection"><path d="M118.03,113.5569 C118.03,131.2369 118.03,137.4269 118.03,155.0869" fill="none" id="Iterable-backto-Collection" style="stroke:#181818;stroke-width:1;"/><polygon fill="none" points="118.03,95.5569,112.03,113.5569,124.03,113.5569,118.03,95.5569" style="stroke:#181818;stroke-width:1;"/></g><!--reverse link Collection to List--><g class="link" data-entity-1="Collection" data-entity-2="List" data-source-line="10" data-uid="lnk6" id="link_Collection_List"><path d="M90.5527,218.1212 C77.7127,235.8012 70.71,245.4269 57.89,263.0869" fill="none" id="Collection-backto-List" style="stroke:#181818;stroke-width:1;"/><polygon fill="none" points="101.13,203.5569,85.6979,214.5955,95.4075,221.647,101.13,203.5569" style="stroke:#181818;stroke-width:1;"/></g><!--reverse link Collection to AbstractCollection--><g class="link" data-entity-1="Collection" data-entity-2="AbstractCollection" data-source-line="12" data-uid="lnk8" id="link_Collection_AbstractCollection"><path d="M145.8083,218.0547 C158.8183,235.7347 165.95,245.4269 178.95,263.0869" fill="none" id="Collection-backto-AbstractCollection" style="stroke:#181818;stroke-width:1;stroke-dasharray:7.0,7.0;"/><polygon fill="none" points="135.14,203.5569,140.9757,221.6108,150.641,214.4986,135.14,203.5569" style="stroke:#181818;stroke-width:1;"/></g><!--reverse link AbstractCollection to AbstractList--><g class="link" data-entity-1="AbstractCollection" data-entity-2="AbstractList" data-source-line="14" data-uid="lnk10" id="link_AbstractCollection_AbstractList"><path d="M174.212,327.4526 C159.732,353.4526 145.26,379.4169 130.87,405.2569" fill="none" id="AbstractCollection-backto-AbstractList" style="stroke:#181818;stroke-width:1;"/><polygon fill="none" points="182.97,311.7269,168.9701,324.5332,179.4539,330.3719,182.97,311.7269" style="stroke:#181818;stroke-width:1;"/></g><!--reverse link List to AbstractList--><g class="link" data-entity-1="List" data-entity-2="AbstractList" data-source-line="14" data-uid="lnk11" id="link_List_AbstractList"><path d="M62.5899,327.5013 C76.8799,353.5013 91.14,379.4169 105.35,405.2569" fill="none" id="List-backto-AbstractList" style="stroke:#181818;stroke-width:1;stroke-dasharray:7.0,7.0;"/><polygon fill="none" points="53.92,311.7269,57.3317,330.3913,67.848,324.6114,53.92,311.7269" style="stroke:#181818;stroke-width:1;"/></g><!--reverse link AbstractList to Vector--><g class="link" data-entity-1="AbstractList" data-entity-2="Vector" data-source-line="16" data-uid="lnk13" id="link_AbstractList_Vector"><path d="M150.88,466.5868 C166.05,482.4268 175.63,489.5569 199.03,501.2969 C236.63,520.1569 284.03,528.8769 318.19,532.8969" fill="none" id="AbstractList-backto-Vector" style="stroke:#181818;stroke-width:1;"/><polygon fill="none" points="138.43,453.5869,146.5467,470.7368,155.2133,462.4368,138.43,453.5869" style="stroke:#181818;stroke-width:1;"/></g><!--reverse link RandomAccess to Vector--><g class="link" data-entity-1="RandomAccess" data-entity-2="Vector" data-source-line="16" data-uid="lnk15" id="link_RandomAccess_Vector"><path d="M313.5019,468.1252 C326.3319,485.8052 333.34,495.4269 346.17,513.0869" fill="none" id="RandomAccess-backto-Vector" style="stroke:#181818;stroke-width:1;stroke-dasharray:7.0,7.0;"/><polygon fill="none" points="302.93,453.5569,308.6458,471.6491,318.358,464.6012,302.93,453.5569" style="stroke:#181818;stroke-width:1;"/></g><!--reverse link Cloneable to Vector--><g class="link" data-entity-1="Cloneable" data-entity-2="Vector" data-source-line="16" data-uid="lnk17" id="link_Cloneable_Vector"><path d="M413.2417,468.0547 C400.2317,485.7347 393.1,495.4269 380.1,513.0869" fill="none" id="Cloneable-backto-Vector" style="stroke:#181818;stroke-width:1;stroke-dasharray:7.0,7.0;"/><polygon fill="none" points="423.91,453.5569,408.409,464.4986,418.0743,471.6108,423.91,453.5569" style="stroke:#181818;stroke-width:1;"/></g><!--reverse link Serializable to Vector--><g class="link" data-entity-1="Serializable" data-entity-2="Vector" data-source-line="16" data-uid="lnk21" id="link_Serializable_Vector"><path d="M565.2342,465.367 C547.0842,481.007 534.94,489.1469 509.03,501.2969 C476.93,516.3469 437.73,525.2869 408.04,530.3569" fill="none" id="Serializable-backto-Vector" style="stroke:#181818;stroke-width:1;stroke-dasharray:7.0,7.0;"/><polygon fill="none" points="578.87,453.6169,561.3175,460.8217,569.1509,469.9122,578.87,453.6169" style="stroke:#181818;stroke-width:1;"/></g><!--reverse link Vector to Stack--><g class="link" data-entity-1="Vector" data-entity-2="Stack" data-source-line="18" data-uid="lnk23" id="link_Vector_Stack"><path d="M363.03,579.5569 C363.03,597.2369 363.03,603.4269 363.03,621.0869" fill="none" id="Vector-backto-Stack" style="stroke:#181818;stroke-width:1;"/><polygon fill="none" points="363.03,561.5569,357.03,579.5569,369.03,579.5569,363.03,561.5569" style="stroke:#181818;stroke-width:1;"/></g><!--SRC=[ZP0zJmCn38Pt_mflB5LXOpbLAXLVKjM1azXzEHUvJPnJR13YrtEd87e51hR4Vjx7iY_iA3fGeOIQUpOUyFeAJiMUz_GQ_IwhxoWnFaYX5z6CBQdX_Gs0YqV6fbkrJk7ON7Oh057digV0-3W-g8lSt9wLDpb63YvPnmRokxFszWtFoQsOpvbJ4e0wyqB1CKGom_NNzrmkQOYSMFrVsP_ZVZldmea6g8RdiPtBNzc9cgUUIFkSrY6msG8tCIjFMo_mG6-qbBnikGX5-QYtgFfwtPczpeDF]--></g></svg>