<svg xmlns="http://www.w3.org/2000/svg" xmlns:xlink="http://www.w3.org/1999/xlink" contentStyleType="text/css" data-diagram-type="CLASS" height="315px" preserveAspectRatio="none" style="width:829px;height:315px;background:#FFFFFF;" version="1.1" viewBox="0 0 829 315" width="829px" zoomAndPan="magnify"><title>&lt;b&gt;ChannelHandler &#32487;&#25215;&#20307;&#31995;&lt;/b&gt;</title><defs/><g><text fill="#000000" font-family="sans-serif" font-size="14" font-weight="bold" lengthAdjust="spacing" textLength="187.1404" x="314.369" y="22.9951">ChannelHandler &#32487;&#25215;&#20307;&#31995;</text><!--class ChannelInboundHandler--><g class="entity" data-entity="ChannelInboundHandler" data-source-line="6" data-uid="ent0002" id="entity_ChannelInboundHandler"><rect fill="#F1F1F1" height="48" rx="2.5" ry="2.5" style="stroke:#181818;stroke-width:0.5;" width="201.6885" x="7" y="152.2969"/><ellipse cx="22" cy="168.2969" fill="#B4A7E5" rx="11" ry="11" style="stroke:#181818;stroke-width:1;"/><path d="M17.9219,164.0625 L17.9219,161.9063 L25.3125,161.9063 L25.3125,164.0625 L22.8438,164.0625 L22.8438,172.1406 L25.3125,172.1406 L25.3125,174.2969 L17.9219,174.2969 L17.9219,172.1406 L20.3906,172.1406 L20.3906,164.0625 L17.9219,164.0625 Z " fill="#000000"/><text fill="#000000" font-family="sans-serif" font-size="14" font-style="italic" lengthAdjust="spacing" textLength="169.6885" x="36" y="173.1436">ChannelInboundHandler</text><line style="stroke:#181818;stroke-width:0.5;" x1="8" x2="207.6885" y1="184.2969" y2="184.2969"/><line style="stroke:#181818;stroke-width:0.5;" x1="8" x2="207.6885" y1="192.2969" y2="192.2969"/></g><!--class ChannelHandler--><g class="entity" data-entity="ChannelHandler" data-source-line="6" data-uid="ent0003" id="entity_ChannelHandler"><rect fill="#F1F1F1" height="48" rx="2.5" ry="2.5" style="stroke:#181818;stroke-width:0.5;" width="144.6016" x="336.54" y="44.2969"/><ellipse cx="351.54" cy="60.2969" fill="#B4A7E5" rx="11" ry="11" style="stroke:#181818;stroke-width:1;"/><path d="M347.4619,56.0625 L347.4619,53.9063 L354.8525,53.9063 L354.8525,56.0625 L352.3838,56.0625 L352.3838,64.1406 L354.8525,64.1406 L354.8525,66.2969 L347.4619,66.2969 L347.4619,64.1406 L349.9306,64.1406 L349.9306,56.0625 L347.4619,56.0625 Z " fill="#000000"/><text fill="#000000" font-family="sans-serif" font-size="14" font-style="italic" lengthAdjust="spacing" textLength="112.6016" x="365.54" y="65.1436">ChannelHandler</text><line style="stroke:#181818;stroke-width:0.5;" x1="337.54" x2="480.1416" y1="76.2969" y2="76.2969"/><line style="stroke:#181818;stroke-width:0.5;" x1="337.54" x2="480.1416" y1="84.2969" y2="84.2969"/></g><!--class ChannelOutboundHandler--><g class="entity" data-entity="ChannelOutboundHandler" data-source-line="7" data-uid="ent0005" id="entity_ChannelOutboundHandler"><rect fill="#F1F1F1" height="48" rx="2.5" ry="2.5" style="stroke:#181818;stroke-width:0.5;" width="214.0684" x="608.81" y="152.2969"/><ellipse cx="623.81" cy="168.2969" fill="#B4A7E5" rx="11" ry="11" style="stroke:#181818;stroke-width:1;"/><path d="M619.7319,164.0625 L619.7319,161.9063 L627.1225,161.9063 L627.1225,164.0625 L624.6538,164.0625 L624.6538,172.1406 L627.1225,172.1406 L627.1225,174.2969 L619.7319,174.2969 L619.7319,172.1406 L622.2006,172.1406 L622.2006,164.0625 L619.7319,164.0625 Z " fill="#000000"/><text fill="#000000" font-family="sans-serif" font-size="14" font-style="italic" lengthAdjust="spacing" textLength="182.0684" x="637.81" y="173.1436">ChannelOutboundHandler</text><line style="stroke:#181818;stroke-width:0.5;" x1="609.81" x2="821.8784" y1="184.2969" y2="184.2969"/><line style="stroke:#181818;stroke-width:0.5;" x1="609.81" x2="821.8784" y1="192.2969" y2="192.2969"/></g><!--class ChannelHandlerAdapter--><g class="entity" data-entity="ChannelHandlerAdapter" data-source-line="9" data-uid="ent0007" id="entity_ChannelHandlerAdapter"><rect fill="#F1F1F1" height="48" rx="2.5" ry="2.5" style="stroke:#181818;stroke-width:0.5;" width="200.3896" x="308.65" y="152.2969"/><ellipse cx="323.65" cy="168.2969" fill="#A9DCDF" rx="11" ry="11" style="stroke:#181818;stroke-width:1;"/><path d="M323.7594,163.6406 L322.6031,168.7188 L324.9313,168.7188 L323.7594,163.6406 Z M322.275,161.4063 L325.2594,161.4063 L328.6188,173.7969 L326.1656,173.7969 L325.4,170.7344 L322.1188,170.7344 L321.3688,173.7969 L318.9313,173.7969 L322.275,161.4063 Z " fill="#000000"/><text fill="#000000" font-family="sans-serif" font-size="14" font-style="italic" lengthAdjust="spacing" textLength="168.3896" x="337.65" y="173.1436">ChannelHandlerAdapter</text><line style="stroke:#181818;stroke-width:0.5;" x1="309.65" x2="508.0396" y1="184.2969" y2="184.2969"/><line style="stroke:#181818;stroke-width:0.5;" x1="309.65" x2="508.0396" y1="192.2969" y2="192.2969"/></g><!--class ChannelInboundHandlerAdapter--><g class="entity" data-entity="ChannelInboundHandlerAdapter" data-source-line="11" data-uid="ent0009" id="entity_ChannelInboundHandlerAdapter"><rect fill="#F1F1F1" height="48" rx="2.5" ry="2.5" style="stroke:#181818;stroke-width:0.5;" width="257.4766" x="101.11" y="260.2969"/><ellipse cx="116.11" cy="276.2969" fill="#ADD1B2" rx="11" ry="11" style="stroke:#181818;stroke-width:1;"/><path d="M119.0788,281.9375 Q118.5006,282.2344 117.86,282.375 Q117.2194,282.5313 116.5163,282.5313 Q114.0163,282.5313 112.6881,280.8906 Q111.3756,279.2344 111.3756,276.1094 Q111.3756,272.9844 112.6881,271.3281 Q114.0163,269.6719 116.5163,269.6719 Q117.2194,269.6719 117.86,269.8281 Q118.5163,269.9844 119.0788,270.2813 L119.0788,273 Q118.4538,272.4219 117.86,272.1563 Q117.2663,271.875 116.6413,271.875 Q115.2975,271.875 114.61,272.9531 Q113.9225,274.0156 113.9225,276.1094 Q113.9225,278.2031 114.61,279.2813 Q115.2975,280.3438 116.6413,280.3438 Q117.2663,280.3438 117.86,280.0781 Q118.4538,279.7969 119.0788,279.2188 L119.0788,281.9375 Z " fill="#000000"/><text fill="#000000" font-family="sans-serif" font-size="14" lengthAdjust="spacing" textLength="225.4766" x="130.11" y="281.1436">ChannelInboundHandlerAdapter</text><line style="stroke:#181818;stroke-width:0.5;" x1="102.11" x2="357.5866" y1="292.2969" y2="292.2969"/><line style="stroke:#181818;stroke-width:0.5;" x1="102.11" x2="357.5866" y1="300.2969" y2="300.2969"/></g><!--class ChannelOutboundHandlerAdapter--><g class="entity" data-entity="ChannelOutboundHandlerAdapter" data-source-line="12" data-uid="ent0012" id="entity_ChannelOutboundHandlerAdapter"><rect fill="#F1F1F1" height="48" rx="2.5" ry="2.5" style="stroke:#181818;stroke-width:0.5;" width="269.8564" x="519.92" y="260.2969"/><ellipse cx="534.92" cy="276.2969" fill="#ADD1B2" rx="11" ry="11" style="stroke:#181818;stroke-width:1;"/><path d="M537.8888,281.9375 Q537.3106,282.2344 536.67,282.375 Q536.0294,282.5313 535.3263,282.5313 Q532.8263,282.5313 531.4981,280.8906 Q530.1856,279.2344 530.1856,276.1094 Q530.1856,272.9844 531.4981,271.3281 Q532.8263,269.6719 535.3263,269.6719 Q536.0294,269.6719 536.67,269.8281 Q537.3263,269.9844 537.8888,270.2813 L537.8888,273 Q537.2638,272.4219 536.67,272.1563 Q536.0763,271.875 535.4513,271.875 Q534.1075,271.875 533.42,272.9531 Q532.7325,274.0156 532.7325,276.1094 Q532.7325,278.2031 533.42,279.2813 Q534.1075,280.3438 535.4513,280.3438 Q536.0763,280.3438 536.67,280.0781 Q537.2638,279.7969 537.8888,279.2188 L537.8888,281.9375 Z " fill="#000000"/><text fill="#000000" font-family="sans-serif" font-size="14" lengthAdjust="spacing" textLength="237.8564" x="548.92" y="281.1436">ChannelOutboundHandlerAdapter</text><line style="stroke:#181818;stroke-width:0.5;" x1="520.92" x2="788.7764" y1="292.2969" y2="292.2969"/><line style="stroke:#181818;stroke-width:0.5;" x1="520.92" x2="788.7764" y1="300.2969" y2="300.2969"/></g><!--reverse link ChannelHandler to ChannelInboundHandler--><g class="link" data-entity-1="ChannelHandler" data-entity-2="ChannelInboundHandler" data-source-line="6" data-uid="lnk4" id="link_ChannelHandler_ChannelInboundHandler"><path d="M325.442,98.6657 C275.492,116.2557 224.33,134.2769 174.36,151.8669" fill="none" id="ChannelHandler-backto-ChannelInboundHandler" style="stroke:#181818;stroke-width:1;"/><polygon fill="none" points="342.42,92.6869,323.449,93.0064,327.4349,104.3251,342.42,92.6869" style="stroke:#181818;stroke-width:1;"/></g><!--reverse link ChannelHandler to ChannelOutboundHandler--><g class="link" data-entity-1="ChannelHandler" data-entity-2="ChannelOutboundHandler" data-source-line="7" data-uid="lnk6" id="link_ChannelHandler_ChannelOutboundHandler"><path d="M493.6142,98.562 C544.5542,116.152 597.03,134.2769 648,151.8669" fill="none" id="ChannelHandler-backto-ChannelOutboundHandler" style="stroke:#181818;stroke-width:1;"/><polygon fill="none" points="476.6,92.6869,491.6558,104.2334,495.5726,92.8906,476.6,92.6869" style="stroke:#181818;stroke-width:1;"/></g><!--reverse link ChannelHandler to ChannelHandlerAdapter--><g class="link" data-entity-1="ChannelHandler" data-entity-2="ChannelHandlerAdapter" data-source-line="9" data-uid="lnk8" id="link_ChannelHandler_ChannelHandlerAdapter"><path d="M408.84,110.5569 C408.84,128.2369 408.84,134.4269 408.84,152.0869" fill="none" id="ChannelHandler-backto-ChannelHandlerAdapter" style="stroke:#181818;stroke-width:1;stroke-dasharray:7.0,7.0;"/><polygon fill="none" points="408.84,92.5569,402.84,110.5569,414.84,110.5569,408.84,92.5569" style="stroke:#181818;stroke-width:1;"/></g><!--reverse link ChannelHandlerAdapter to ChannelInboundHandlerAdapter--><g class="link" data-entity-1="ChannelHandlerAdapter" data-entity-2="ChannelInboundHandlerAdapter" data-source-line="11" data-uid="lnk10" id="link_ChannelHandlerAdapter_ChannelInboundHandlerAdapter"><path d="M354.0716,209.728 C324.3316,227.338 299.14,242.2669 269.34,259.9069" fill="none" id="ChannelHandlerAdapter-backto-ChannelInboundHandlerAdapter" style="stroke:#181818;stroke-width:1;"/><polygon fill="none" points="369.56,200.5569,351.0146,204.5652,357.1287,214.8908,369.56,200.5569" style="stroke:#181818;stroke-width:1;"/></g><!--reverse link ChannelInboundHandler to ChannelInboundHandlerAdapter--><g class="link" data-entity-1="ChannelInboundHandler" data-entity-2="ChannelInboundHandlerAdapter" data-source-line="11" data-uid="lnk11" id="link_ChannelInboundHandler_ChannelInboundHandlerAdapter"><path d="M148.2052,212.3654 C168.5452,230.0454 182.81,242.4269 203.13,260.0869" fill="none" id="ChannelInboundHandler-backto-ChannelInboundHandlerAdapter" style="stroke:#181818;stroke-width:1;stroke-dasharray:7.0,7.0;"/><polygon fill="none" points="134.62,200.5569,144.269,216.8938,152.1414,207.837,134.62,200.5569" style="stroke:#181818;stroke-width:1;"/></g><!--reverse link ChannelHandlerAdapter to ChannelOutboundHandlerAdapter--><g class="link" data-entity-1="ChannelHandlerAdapter" data-entity-2="ChannelOutboundHandlerAdapter" data-source-line="12" data-uid="lnk13" id="link_ChannelHandlerAdapter_ChannelOutboundHandlerAdapter"><path d="M479.6612,207.8086 C520.5612,225.4286 559.83,242.3569 600.69,259.9669" fill="none" id="ChannelHandlerAdapter-backto-ChannelOutboundHandlerAdapter" style="stroke:#181818;stroke-width:1;"/><polygon fill="none" points="463.13,200.6869,477.2873,213.319,482.0351,202.2982,463.13,200.6869" style="stroke:#181818;stroke-width:1;"/></g><!--reverse link ChannelOutboundHandler to ChannelOutboundHandlerAdapter--><g class="link" data-entity-1="ChannelOutboundHandler" data-entity-2="ChannelOutboundHandlerAdapter" data-source-line="12" data-uid="lnk14" id="link_ChannelOutboundHandler_ChannelOutboundHandlerAdapter"><path d="M693.4849,216.1597 C683.3149,233.8397 678.36,242.4269 668.2,260.0869" fill="none" id="ChannelOutboundHandler-backto-ChannelOutboundHandlerAdapter" style="stroke:#181818;stroke-width:1;stroke-dasharray:7.0,7.0;"/><polygon fill="none" points="702.46,200.5569,688.2839,213.168,698.6858,219.1514,702.46,200.5569" style="stroke:#181818;stroke-width:1;"/></g><!--SRC=[dOyn2i9044NxFSLqbiR6AWJ4HYlFC9iTSSbc3BiJy0hM7i83M0RnCcAkeO8HDb4Gsp_ptfy9XUKAFPR0MqE1AfWaYHg5T-oHYsSyJPGIAuuWrTbyWypa5iZ6aOUsETxsb-lvq9wQTAmpfImB-JNc1A_L9UjjpQOZQ2V49a0i6cAhMdxX5EeW7dE1t67eZsS6guSNR5avAebbo4TOV6j7Vwx-xeujSKFlhNyhUXfr1m00]--></g></svg>