<?xml version="1.0" encoding="UTF-8" standalone="no"?>
<!DOCTYPE svg PUBLIC "-//W3C//DTD SVG 1.1//EN"
 "http://www.w3.org/Graphics/SVG/1.1/DTD/svg11.dtd">
<!-- Generated by graphviz version 9.0.0 (20230911.1827)
 -->
<!-- Title: G Pages: 1 -->
<svg width="174pt" height="188pt"
 viewBox="0.00 0.00 174.00 188.00" xmlns="http://www.w3.org/2000/svg" xmlns:xlink="http://www.w3.org/1999/xlink">
<g id="graph0" class="graph" transform="scale(1 1) rotate(0) translate(4 184)">
<title>G</title>
<polygon fill="white" stroke="none" points="-4,4 -4,-184 170,-184 170,4 -4,4"/>
<!-- BootClassLoader -->
<g id="node1" class="node">
<title>BootClassLoader</title>
<polygon fill="none" stroke="black" points="151.38,-180 14.62,-180 14.62,-144 151.38,-144 151.38,-180"/>
<text text-anchor="middle" x="83" y="-157.32" font-family="Times,serif" font-size="14.00">BootClassLoader</text>
</g>
<!-- PlatformClassLoader -->
<g id="node2" class="node">
<title>PlatformClassLoader</title>
<polygon fill="none" stroke="black" points="166,-108 0,-108 0,-72 166,-72 166,-108"/>
<text text-anchor="middle" x="83" y="-85.33" font-family="Times,serif" font-size="14.00">PlatformClassLoader</text>
</g>
<!-- BootClassLoader&#45;&gt;PlatformClassLoader -->
<g id="edge1" class="edge">
<title>BootClassLoader&#45;&gt;PlatformClassLoader</title>
<path fill="none" stroke="black" d="M83,-132.24C83,-124.04 83,-115.37 83,-108.1"/>
<polygon fill="black" stroke="black" points="79.5,-132.18 83,-142.18 86.5,-132.18 79.5,-132.18"/>
</g>
<!-- AppClassLoader -->
<g id="node3" class="node">
<title>AppClassLoader</title>
<polygon fill="none" stroke="black" points="148.75,-36 17.25,-36 17.25,0 148.75,0 148.75,-36"/>
<text text-anchor="middle" x="83" y="-13.32" font-family="Times,serif" font-size="14.00">AppClassLoader</text>
</g>
<!-- PlatformClassLoader&#45;&gt;AppClassLoader -->
<g id="edge2" class="edge">
<title>PlatformClassLoader&#45;&gt;AppClassLoader</title>
<path fill="none" stroke="black" d="M83,-60.24C83,-52.04 83,-43.37 83,-36.1"/>
<polygon fill="black" stroke="black" points="79.5,-60.18 83,-70.18 86.5,-60.18 79.5,-60.18"/>
</g>
</g>
</svg>
