<?xml version="1.0" encoding="UTF-8" standalone="no"?>
<!DOCTYPE svg PUBLIC "-//W3C//DTD SVG 1.1//EN"
 "http://www.w3.org/Graphics/SVG/1.1/DTD/svg11.dtd">
<!-- Generated by graphviz version 9.0.0 (20230911.1827)
 -->
<!-- Title: G Pages: 1 -->
<svg width="182pt" height="188pt"
 viewBox="0.00 0.00 182.25 188.00" xmlns="http://www.w3.org/2000/svg" xmlns:xlink="http://www.w3.org/1999/xlink">
<g id="graph0" class="graph" transform="scale(1 1) rotate(0) translate(4 184)">
<title>G</title>
<polygon fill="white" stroke="none" points="-4,4 -4,-184 178.25,-184 178.25,4 -4,4"/>
<!-- BootstrapClassLoader -->
<g id="node1" class="node">
<title>BootstrapClassLoader</title>
<polygon fill="none" stroke="black" points="174.25,-180 0,-180 0,-144 174.25,-144 174.25,-180"/>
<text text-anchor="middle" x="87.12" y="-157.32" font-family="Times,serif" font-size="14.00">BootstrapClassLoader</text>
</g>
<!-- ExtClassLoader -->
<g id="node2" class="node">
<title>ExtClassLoader</title>
<polygon fill="none" stroke="black" points="151.38,-108 22.88,-108 22.88,-72 151.38,-72 151.38,-108"/>
<text text-anchor="middle" x="87.12" y="-85.33" font-family="Times,serif" font-size="14.00">ExtClassLoader</text>
</g>
<!-- BootstrapClassLoader&#45;&gt;ExtClassLoader -->
<g id="edge1" class="edge">
<title>BootstrapClassLoader&#45;&gt;ExtClassLoader</title>
<path fill="none" stroke="black" d="M87.12,-132.24C87.12,-124.04 87.12,-115.37 87.12,-108.1"/>
<polygon fill="black" stroke="black" points="83.63,-132.18 87.13,-142.18 90.63,-132.18 83.63,-132.18"/>
</g>
<!-- AppClassLoader -->
<g id="node3" class="node">
<title>AppClassLoader</title>
<polygon fill="none" stroke="black" points="152.88,-36 21.38,-36 21.38,0 152.88,0 152.88,-36"/>
<text text-anchor="middle" x="87.12" y="-13.32" font-family="Times,serif" font-size="14.00">AppClassLoader</text>
</g>
<!-- ExtClassLoader&#45;&gt;AppClassLoader -->
<g id="edge2" class="edge">
<title>ExtClassLoader&#45;&gt;AppClassLoader</title>
<path fill="none" stroke="black" d="M87.12,-60.24C87.12,-52.04 87.12,-43.37 87.12,-36.1"/>
<polygon fill="black" stroke="black" points="83.63,-60.18 87.13,-70.18 90.63,-60.18 83.63,-60.18"/>
</g>
</g>
</svg>
