<svg xmlns="http://www.w3.org/2000/svg" xmlns:xlink="http://www.w3.org/1999/xlink" contentStyleType="text/css" data-diagram-type="CLASS" height="210px" preserveAspectRatio="none" style="width:316px;height:210px;background:#FFFFFF;" version="1.1" viewBox="0 0 316 210" width="316px" zoomAndPan="magnify"><title>&lt;b&gt;ForkJoinTask&lt;/b&gt;</title><defs/><g><text fill="#000000" font-family="sans-serif" font-size="14" font-weight="bold" lengthAdjust="spacing" textLength="101.6299" x="100.3557" y="22.9951">ForkJoinTask</text><!--class Future--><g class="entity" data-entity="Future" data-source-line="6" data-uid="ent0002" id="entity_Future"><rect fill="#F1F1F1" height="48" rx="2.5" ry="2.5" style="stroke:#181818;stroke-width:0.5;" width="89.8662" x="7" y="47.2969"/><ellipse cx="22" cy="63.2969" fill="#B4A7E5" rx="11" ry="11" style="stroke:#181818;stroke-width:1;"/><path d="M17.9219,59.0625 L17.9219,56.9063 L25.3125,56.9063 L25.3125,59.0625 L22.8438,59.0625 L22.8438,67.1406 L25.3125,67.1406 L25.3125,69.2969 L17.9219,69.2969 L17.9219,67.1406 L20.3906,67.1406 L20.3906,59.0625 L17.9219,59.0625 Z " fill="#000000"/><text fill="#000000" font-family="sans-serif" font-size="14" font-style="italic" lengthAdjust="spacing" textLength="45.6572" x="36" y="68.1436">Future</text><rect fill="#FFFFFF" height="15.9688" style="stroke:#181818;stroke-width:1;stroke-dasharray:2.0,2.0;" width="10.209" x="89.6572" y="44.2969"/><text fill="#000000" font-family="sans-serif" font-size="12" font-style="italic" lengthAdjust="spacing" textLength="8.209" x="90.6572" y="56.4355">V</text><line style="stroke:#181818;stroke-width:0.5;" x1="8" x2="95.8662" y1="79.2969" y2="79.2969"/><line style="stroke:#181818;stroke-width:0.5;" x1="8" x2="95.8662" y1="87.2969" y2="87.2969"/></g><!--class ForkJoinTask--><g class="entity" data-entity="ForkJoinTask" data-source-line="8" data-uid="ent0003" id="entity_ForkJoinTask"><rect fill="#F1F1F1" height="48" rx="2.5" ry="2.5" style="stroke:#181818;stroke-width:0.5;" width="132.6797" x="85.59" y="155.2969"/><ellipse cx="100.59" cy="171.2969" fill="#A9DCDF" rx="11" ry="11" style="stroke:#181818;stroke-width:1;"/><path d="M100.6994,166.6406 L99.5431,171.7188 L101.8713,171.7188 L100.6994,166.6406 Z M99.215,164.4063 L102.1994,164.4063 L105.5588,176.7969 L103.1056,176.7969 L102.34,173.7344 L99.0588,173.7344 L98.3088,176.7969 L95.8713,176.7969 L99.215,164.4063 Z " fill="#000000"/><text fill="#000000" font-family="sans-serif" font-size="14" font-style="italic" lengthAdjust="spacing" textLength="88.4707" x="114.59" y="176.1436">ForkJoinTask</text><rect fill="#FFFFFF" height="15.9688" style="stroke:#181818;stroke-width:1;stroke-dasharray:2.0,2.0;" width="10.209" x="211.0607" y="152.2969"/><text fill="#000000" font-family="sans-serif" font-size="12" font-style="italic" lengthAdjust="spacing" textLength="8.209" x="212.0607" y="164.4355">V</text><line style="stroke:#181818;stroke-width:0.5;" x1="86.59" x2="217.2697" y1="187.2969" y2="187.2969"/><line style="stroke:#181818;stroke-width:0.5;" x1="86.59" x2="217.2697" y1="195.2969" y2="195.2969"/></g><!--class Serializable--><g class="entity" data-entity="Serializable" data-source-line="8" data-uid="ent0005" id="entity_Serializable"><rect fill="#F1F1F1" height="48" rx="2.5" ry="2.5" style="stroke:#181818;stroke-width:0.5;" width="112.8213" x="196.52" y="47.2969"/><ellipse cx="211.52" cy="63.2969" fill="#B4A7E5" rx="11" ry="11" style="stroke:#181818;stroke-width:1;"/><path d="M207.4419,59.0625 L207.4419,56.9063 L214.8325,56.9063 L214.8325,59.0625 L212.3638,59.0625 L212.3638,67.1406 L214.8325,67.1406 L214.8325,69.2969 L207.4419,69.2969 L207.4419,67.1406 L209.9106,67.1406 L209.9106,59.0625 L207.4419,59.0625 Z " fill="#000000"/><text fill="#000000" font-family="sans-serif" font-size="14" font-style="italic" lengthAdjust="spacing" textLength="80.8213" x="225.52" y="68.1436">Serializable</text><line style="stroke:#181818;stroke-width:0.5;" x1="197.52" x2="308.3413" y1="79.2969" y2="79.2969"/><line style="stroke:#181818;stroke-width:0.5;" x1="197.52" x2="308.3413" y1="87.2969" y2="87.2969"/></g><!--reverse link Future to ForkJoinTask--><g class="link" data-entity-1="Future" data-entity-2="ForkJoinTask" data-source-line="8" data-uid="lnk4" id="link_Future_ForkJoinTask"><path d="M86.2283,108.6534 C102.8983,126.3334 113.38,137.4269 130.04,155.0869" fill="none" id="Future-backto-ForkJoinTask" style="stroke:#181818;stroke-width:1;stroke-dasharray:7.0,7.0;"/><polygon fill="none" points="73.88,95.5569,81.8628,112.7695,90.5938,104.5373,73.88,95.5569" style="stroke:#181818;stroke-width:1;"/></g><!--reverse link Serializable to ForkJoinTask--><g class="link" data-entity-1="Serializable" data-entity-2="ForkJoinTask" data-source-line="8" data-uid="lnk6" id="link_Serializable_ForkJoinTask"><path d="M218.3555,108.5907 C201.5155,126.2707 190.87,137.4269 174.05,155.0869" fill="none" id="Serializable-backto-ForkJoinTask" style="stroke:#181818;stroke-width:1;stroke-dasharray:7.0,7.0;"/><polygon fill="none" points="230.77,95.5569,214.0109,104.4525,222.7001,112.7288,230.77,95.5569" style="stroke:#181818;stroke-width:1;"/></g><!--SRC=[LSkz2W8n303WlK-HpKMmBawbumskokrfZH3wIv9RxkbL4C7rWqyBzuc23VfuaDA4i_Vke3yMxEN35- -SiLM2aE8of5m7zpjg2QSKdUDk94_C1Cjccr1OtuX9JJ0Rv8ggyBVM2DncfKRTz9kES2DXhBnZgkHU]--></g></svg>